M48
; DRILL file {KiCad (5.99.0-9393-ga28cb98626)} date Saturday, February 27, 2021 at 02:04:11 PM
; FORMAT={-:-/ absolute / metric / decimal}
; #@! TF.CreationDate,2021-02-27T14:04:11-08:00
; #@! TF.GenerationSoftware,Kicad,Pcbnew,(5.99.0-9393-ga28cb98626)
FMAT,2
METRIC
T1C0.635
T2C1.200
T3C1.270
%
G90
G05
T1
X99.06Y-113.665
X101.346Y-122.374
X103.886Y-130.048
X104.775Y-104.194
X108.712Y-119.126
X108.966Y-130.048
X108.966Y-131.826
X112.903Y-115.824
X115.189Y-121.285
X115.316Y-105.283
X115.824Y-118.745
X116.713Y-129.413
X116.979Y-131.219
X118.491Y-133.604
X118.999Y-125.603
X122.555Y-130.502
X128.397Y-129.413
X128.905Y-121.412
X130.556Y-120.65
X130.883Y-115.302
X153.543Y-132.588
X154.178Y-129.159
X156.718Y-121.158
X160.782Y-125.73
X161.925Y-130.81
X163.66Y-127.0
X167.64Y-129.54
T2
X88.265Y-104.775
X88.265Y-108.275
X88.265Y-111.775
X88.265Y-115.275
X88.265Y-118.775
X88.265Y-122.275
X88.265Y-125.775
X88.265Y-129.275
X88.265Y-132.775
X88.265Y-136.275
X96.01Y-107.823
X99.51Y-107.823
X103.01Y-107.823
X106.51Y-107.823
X110.01Y-107.823
X113.51Y-107.823
X117.01Y-107.823
X120.51Y-107.823
X124.01Y-107.823
X127.51Y-107.823
X140.46Y-107.696
X143.96Y-107.696
X147.46Y-107.696
X150.96Y-107.696
X154.46Y-107.696
X157.96Y-107.696
X161.46Y-107.696
X164.96Y-107.696
X168.46Y-107.696
X171.96Y-107.696
T3
X92.583Y-115.316
X92.583Y-119.516
X92.583Y-125.716
X92.583Y-132.116
X96.983Y-115.316
X96.983Y-119.516
X97.183Y-125.716
X101.383Y-115.316
X101.383Y-119.516
X101.383Y-125.716
X105.783Y-115.316
X105.783Y-119.516
X105.783Y-125.716
X105.783Y-132.116
X137.033Y-115.316
X137.033Y-119.516
X137.033Y-125.716
X137.033Y-132.116
X141.433Y-115.316
X141.433Y-119.516
X141.633Y-125.716
X145.833Y-115.316
X145.833Y-119.516
X145.833Y-125.716
X150.233Y-115.316
X150.233Y-119.516
X150.233Y-125.716
X150.233Y-132.116
T0
M30
