%TF.GenerationSoftware,KiCad,Pcbnew,(5.99.0-9393-ga28cb98626)*%
%TF.CreationDate,2021-02-27T14:03:50-08:00*%
%TF.ProjectId,AuxRelays,41757852-656c-4617-9973-2e6b69636164,n/c*%
%TF.SameCoordinates,Original*%
%TF.FileFunction,Copper,L2,Bot*%
%TF.FilePolarity,Positive*%
%FSLAX46Y46*%
G04 Gerber Fmt 4.6, Leading zero omitted, Abs format (unit mm)*
G04 Created by KiCad (PCBNEW (5.99.0-9393-ga28cb98626)) date 2021-02-27 14:03:50*
%MOMM*%
%LPD*%
G01*
G04 APERTURE LIST*
%TA.AperFunction,ComponentPad*%
%ADD10C,2.286000*%
%TD*%
%TA.AperFunction,ComponentPad*%
%ADD11C,2.400000*%
%TD*%
%TA.AperFunction,ComponentPad*%
%ADD12R,2.400000X2.400000*%
%TD*%
%TA.AperFunction,ViaPad*%
%ADD13C,1.270000*%
%TD*%
%TA.AperFunction,Conductor*%
%ADD14C,0.508000*%
%TD*%
%TA.AperFunction,Conductor*%
%ADD15C,2.032000*%
%TD*%
G04 APERTURE END LIST*
D10*
%TO.P,RLY2,14*%
%TO.N,Net-(D13-Pad1)*%
X150233000Y-132116000D03*
%TO.P,RLY2,13*%
%TO.N,Net-(D13-Pad2)*%
X137033000Y-132116000D03*
%TO.P,RLY2,12*%
%TO.N,Net-(RLY1-Pad4)*%
X150233000Y-125716000D03*
%TO.P,RLY2,11*%
%TO.N,Net-(J2-Pad10)*%
X145833000Y-125716000D03*
%TO.P,RLY2,10*%
%TO.N,Net-(J1-Pad10)*%
X141633000Y-125716000D03*
%TO.P,RLY2,9*%
%TO.N,Net-(J3-Pad10)*%
X137033000Y-125716000D03*
%TO.P,RLY2,8*%
%TO.N,Net-(D19-Pad2)*%
X150233000Y-119516000D03*
%TO.P,RLY2,7*%
%TO.N,Net-(D17-Pad2)*%
X145833000Y-119516000D03*
%TO.P,RLY2,6*%
%TO.N,Net-(D15-Pad2)*%
X141433000Y-119516000D03*
%TO.P,RLY2,5*%
%TO.N,Net-(J2-Pad8)*%
X137033000Y-119516000D03*
%TO.P,RLY2,4*%
%TO.N,Net-(J3-Pad5)*%
X150233000Y-115316000D03*
%TO.P,RLY2,3*%
%TO.N,Net-(D16-Pad2)*%
X145833000Y-115316000D03*
%TO.P,RLY2,2*%
%TO.N,unconnected-(RLY2-Pad2)*%
X141433000Y-115316000D03*
%TO.P,RLY2,1*%
%TO.N,unconnected-(RLY2-Pad1)*%
X137033000Y-115316000D03*
%TD*%
%TO.P,RLY1,14*%
%TO.N,Net-(D2-Pad1)*%
X105783000Y-132116000D03*
%TO.P,RLY1,13*%
%TO.N,Net-(D2-Pad2)*%
X92583000Y-132116000D03*
%TO.P,RLY1,12*%
%TO.N,Net-(J3-Pad1)*%
X105783000Y-125716000D03*
%TO.P,RLY1,11*%
%TO.N,Net-(J2-Pad10)*%
X101383000Y-125716000D03*
%TO.P,RLY1,10*%
%TO.N,Net-(J1-Pad10)*%
X97183000Y-125716000D03*
%TO.P,RLY1,9*%
%TO.N,Net-(J3-Pad10)*%
X92583000Y-125716000D03*
%TO.P,RLY1,8*%
%TO.N,Net-(D11-Pad2)*%
X105783000Y-119516000D03*
%TO.P,RLY1,7*%
%TO.N,Net-(D6-Pad2)*%
X101383000Y-119516000D03*
%TO.P,RLY1,6*%
%TO.N,Net-(D4-Pad2)*%
X96983000Y-119516000D03*
%TO.P,RLY1,5*%
%TO.N,Net-(J1-Pad8)*%
X92583000Y-119516000D03*
%TO.P,RLY1,4*%
%TO.N,Net-(RLY1-Pad4)*%
X105783000Y-115316000D03*
%TO.P,RLY1,3*%
%TO.N,Net-(D5-Pad2)*%
X101383000Y-115316000D03*
%TO.P,RLY1,2*%
%TO.N,unconnected-(RLY1-Pad2)*%
X96983000Y-115316000D03*
%TO.P,RLY1,1*%
%TO.N,unconnected-(RLY1-Pad1)*%
X92583000Y-115316000D03*
%TD*%
D11*
%TO.P,J3,10,Pin_10*%
%TO.N,Net-(J3-Pad10)*%
X88265000Y-136275000D03*
%TO.P,J3,9,Pin_9*%
X88265000Y-132775000D03*
%TO.P,J3,8,Pin_8*%
%TO.N,GND*%
X88265000Y-129275000D03*
%TO.P,J3,7,Pin_7*%
X88265000Y-125775000D03*
%TO.P,J3,6,Pin_6*%
%TO.N,unconnected-(J3-Pad6)*%
X88265000Y-122275000D03*
%TO.P,J3,5,Pin_5*%
%TO.N,Net-(J3-Pad5)*%
X88265000Y-118775000D03*
%TO.P,J3,4,Pin_4*%
%TO.N,Net-(J3-Pad4)*%
X88265000Y-115275000D03*
%TO.P,J3,3,Pin_3*%
%TO.N,Net-(D20-Pad2)*%
X88265000Y-111775000D03*
%TO.P,J3,2,Pin_2*%
%TO.N,Net-(D11-Pad1)*%
X88265000Y-108275000D03*
D12*
%TO.P,J3,1,Pin_1*%
%TO.N,Net-(J3-Pad1)*%
X88265000Y-104775000D03*
%TD*%
D11*
%TO.P,J2,10,Pin_10*%
%TO.N,Net-(J2-Pad10)*%
X140460000Y-107696000D03*
%TO.P,J2,9,Pin_9*%
%TO.N,Net-(J2-Pad8)*%
X143960000Y-107696000D03*
%TO.P,J2,8,Pin_8*%
X147460000Y-107696000D03*
%TO.P,J2,7,Pin_7*%
%TO.N,Net-(D15-Pad1)*%
X150960000Y-107696000D03*
%TO.P,J2,6,Pin_6*%
%TO.N,Net-(D16-Pad1)*%
X154460000Y-107696000D03*
%TO.P,J2,5,Pin_5*%
%TO.N,Net-(D17-Pad1)*%
X157960000Y-107696000D03*
%TO.P,J2,4,Pin_4*%
%TO.N,Net-(D14-Pad2)*%
X161460000Y-107696000D03*
%TO.P,J2,3,Pin_3*%
%TO.N,Net-(D21-Pad2)*%
X164960000Y-107696000D03*
%TO.P,J2,2,Pin_2*%
%TO.N,Net-(D13-Pad2)*%
X168460000Y-107696000D03*
D12*
%TO.P,J2,1,Pin_1*%
%TO.N,Net-(D18-Pad1)*%
X171960000Y-107696000D03*
%TD*%
D11*
%TO.P,J1,10,Pin_10*%
%TO.N,Net-(J1-Pad10)*%
X96010000Y-107823000D03*
%TO.P,J1,9,Pin_9*%
%TO.N,Net-(J1-Pad8)*%
X99510000Y-107823000D03*
%TO.P,J1,8,Pin_8*%
X103010000Y-107823000D03*
%TO.P,J1,7,Pin_7*%
%TO.N,Net-(D4-Pad1)*%
X106510000Y-107823000D03*
%TO.P,J1,6,Pin_6*%
%TO.N,Net-(D5-Pad1)*%
X110010000Y-107823000D03*
%TO.P,J1,5,Pin_5*%
%TO.N,Net-(D6-Pad1)*%
X113510000Y-107823000D03*
%TO.P,J1,4,Pin_4*%
%TO.N,Net-(D3-Pad2)*%
X117010000Y-107823000D03*
%TO.P,J1,3,Pin_3*%
%TO.N,Net-(D10-Pad2)*%
X120510000Y-107823000D03*
%TO.P,J1,2,Pin_2*%
%TO.N,Net-(D2-Pad2)*%
X124010000Y-107823000D03*
D12*
%TO.P,J1,1,Pin_1*%
%TO.N,Net-(D7-Pad1)*%
X127510000Y-107823000D03*
%TD*%
D13*
%TO.N,Net-(J1-Pad10)*%
X99060000Y-113665000D03*
%TO.N,Net-(D2-Pad2)*%
X118491000Y-133604000D03*
X108966000Y-131826000D03*
%TO.N,Net-(J3-Pad4)*%
X103886000Y-130048000D03*
%TO.N,Net-(D11-Pad1)*%
X115316000Y-105283000D03*
%TO.N,Net-(J3-Pad1)*%
X104775000Y-104193990D03*
%TO.N,Net-(D5-Pad2)*%
X112903000Y-115824000D03*
%TO.N,Net-(D4-Pad2)*%
X108712000Y-119126000D03*
%TO.N,Net-(D6-Pad2)*%
X115824000Y-118745000D03*
%TO.N,Net-(D2-Pad2)*%
X116713000Y-129413000D03*
X128397000Y-129413000D03*
%TO.N,Net-(J3-Pad4)*%
X154178000Y-129159000D03*
X108966000Y-130048000D03*
%TO.N,Net-(D20-Pad2)*%
X156718000Y-121158000D03*
X115189000Y-121285000D03*
%TO.N,Net-(D19-Pad2)*%
X153543000Y-132588000D03*
X163660002Y-127000000D03*
%TO.N,Net-(D11-Pad1)*%
X160782000Y-125730000D03*
X118999000Y-125603000D03*
%TO.N,Net-(J2-Pad10)*%
X128905000Y-121412000D03*
%TO.N,Net-(RLY1-Pad4)*%
X130556000Y-120650000D03*
X130883010Y-115302253D03*
%TO.N,Net-(J2-Pad10)*%
X101346000Y-122374010D03*
%TO.N,Net-(D1-Pad2)*%
X122555000Y-130502010D03*
X116979075Y-131219169D03*
%TO.N,Net-(D12-Pad2)*%
X167640000Y-129540000D03*
X161925000Y-130810000D03*
%TD*%
D14*
%TO.N,Net-(J1-Pad10)*%
X96010000Y-107823000D02*
X96010000Y-110615000D01*
X96010000Y-110615000D02*
X99060000Y-113665000D01*
%TO.N,Net-(D20-Pad2)*%
X104187145Y-121285000D02*
X98425000Y-121285000D01*
X95780989Y-123929011D02*
X98425000Y-121285000D01*
X86360000Y-113680000D02*
X86360000Y-123190000D01*
X88265000Y-111775000D02*
X86360000Y-113680000D01*
X87099011Y-123929011D02*
X95780989Y-123929011D01*
X86360000Y-123190000D02*
X87099011Y-123929011D01*
%TO.N,Net-(J3-Pad4)*%
X127113552Y-132308170D02*
X111226170Y-132308170D01*
X130262722Y-129159000D02*
X127113552Y-132308170D01*
X154178000Y-129159000D02*
X130262722Y-129159000D01*
%TO.N,Net-(D1-Pad2)*%
X122555000Y-130502010D02*
X117696234Y-130502010D01*
%TO.N,Net-(J3-Pad4)*%
X111226170Y-132308170D02*
X108966000Y-130048000D01*
%TO.N,Net-(D1-Pad2)*%
X117696234Y-130502010D02*
X116979075Y-131219169D01*
%TO.N,Net-(D2-Pad2)*%
X108966000Y-131826000D02*
X110744000Y-133604000D01*
X110744000Y-133604000D02*
X118491000Y-133604000D01*
X106299000Y-134493000D02*
X94960000Y-134493000D01*
X94960000Y-134493000D02*
X92583000Y-132116000D01*
X108966000Y-131826000D02*
X106299000Y-134493000D01*
%TO.N,Net-(D20-Pad2)*%
X104723167Y-121821022D02*
X104187145Y-121285000D01*
X114652978Y-121821022D02*
X104723167Y-121821022D01*
X115189000Y-121285000D02*
X114652978Y-121821022D01*
%TO.N,Net-(J3-Pad4)*%
X108966000Y-130048000D02*
X103886000Y-130048000D01*
%TO.N,Net-(J3-Pad1)*%
X88265000Y-104775000D02*
X88392000Y-104902000D01*
%TO.N,Net-(D11-Pad1)*%
X104687268Y-105283000D02*
X103801279Y-106168989D01*
%TO.N,Net-(J3-Pad1)*%
X104066990Y-104902000D02*
X104775000Y-104193990D01*
X88392000Y-104902000D02*
X104066990Y-104902000D01*
%TO.N,Net-(D11-Pad1)*%
X115316000Y-105283000D02*
X104687268Y-105283000D01*
X103801279Y-106168989D02*
X90371011Y-106168989D01*
X90371011Y-106168989D02*
X88265000Y-108275000D01*
%TO.N,Net-(D5-Pad2)*%
X108585000Y-113411000D02*
X109347000Y-114173000D01*
%TO.N,Net-(J3-Pad5)*%
X110319434Y-117147990D02*
X89892010Y-117147990D01*
X110792456Y-117621012D02*
X110319434Y-117147990D01*
X150233000Y-115316000D02*
X147927988Y-117621012D01*
X147927988Y-117621012D02*
X110792456Y-117621012D01*
%TO.N,Net-(RLY1-Pad4)*%
X105783000Y-115316000D02*
X109488722Y-115316000D01*
%TO.N,Net-(D5-Pad2)*%
X109347000Y-114173000D02*
X110998000Y-115824000D01*
%TO.N,Net-(J3-Pad5)*%
X89892010Y-117147990D02*
X88265000Y-118775000D01*
%TO.N,Net-(RLY1-Pad4)*%
X109488722Y-115316000D02*
X111085723Y-116913001D01*
X129272262Y-116913001D02*
X130883010Y-115302253D01*
%TO.N,Net-(D5-Pad2)*%
X101383000Y-115316000D02*
X102235000Y-115316000D01*
%TO.N,Net-(RLY1-Pad4)*%
X111085723Y-116913001D02*
X129272262Y-116913001D01*
%TO.N,Net-(D5-Pad2)*%
X102235000Y-115316000D02*
X104140000Y-113411000D01*
X104140000Y-113411000D02*
X108585000Y-113411000D01*
X110998000Y-115824000D02*
X112903000Y-115824000D01*
%TO.N,Net-(J2-Pad10)*%
X101501022Y-122529032D02*
X101346000Y-122374010D01*
X128676968Y-122529032D02*
X101501022Y-122529032D01*
X128905000Y-122301000D02*
X128676968Y-122529032D01*
%TO.N,Net-(D4-Pad2)*%
X107504989Y-117918989D02*
X108712000Y-119126000D01*
%TO.N,Net-(D6-Pad2)*%
X105016434Y-121113011D02*
X113455989Y-121113011D01*
X101383000Y-119516000D02*
X103419423Y-119516000D01*
X113455989Y-121113011D02*
X115824000Y-118745000D01*
X103419423Y-119516000D02*
X105016434Y-121113011D01*
%TO.N,Net-(D4-Pad2)*%
X96983000Y-119516000D02*
X98580011Y-117918989D01*
X98580011Y-117918989D02*
X107504989Y-117918989D01*
D15*
%TO.N,Net-(J3-Pad10)*%
X137033000Y-125716000D02*
X135187001Y-127561999D01*
X115189519Y-128196999D02*
X92783001Y-128196999D01*
X92783001Y-128196999D02*
X92075000Y-128905000D01*
D14*
%TO.N,Net-(D2-Pad2)*%
X116713000Y-129413000D02*
X128397000Y-129413000D01*
D15*
%TO.N,Net-(J3-Pad10)*%
X135187001Y-127561999D02*
X115824519Y-127561999D01*
X115824519Y-127561999D02*
X115189519Y-128196999D01*
D14*
%TO.N,Net-(J1-Pad10)*%
X101868721Y-123463011D02*
X99435989Y-123463011D01*
X101920753Y-123410979D02*
X101868721Y-123463011D01*
X141633000Y-125716000D02*
X139327979Y-123410979D01*
X99435989Y-123463011D02*
X97183000Y-125716000D01*
X139327979Y-123410979D02*
X101920753Y-123410979D01*
%TO.N,Net-(J2-Pad10)*%
X129178022Y-122574022D02*
X128905000Y-122301000D01*
%TO.N,Net-(RLY1-Pad4)*%
X146383011Y-121866011D02*
X131772011Y-121866011D01*
%TO.N,Net-(D20-Pad2)*%
X134620000Y-121158000D02*
X134239000Y-120777000D01*
X132842000Y-119380000D02*
X127127000Y-119380000D01*
X156718000Y-121158000D02*
X134620000Y-121158000D01*
X134239000Y-120777000D02*
X132842000Y-119380000D01*
X117094000Y-119380000D02*
X115189000Y-121285000D01*
%TO.N,Net-(J2-Pad10)*%
X145833000Y-125716000D02*
X142691022Y-122574022D01*
X142691022Y-122574022D02*
X129178022Y-122574022D01*
%TO.N,Net-(RLY1-Pad4)*%
X131772011Y-121866011D02*
X130556000Y-120650000D01*
%TO.N,Net-(D20-Pad2)*%
X127127000Y-119380000D02*
X117094000Y-119380000D01*
%TO.N,Net-(RLY1-Pad4)*%
X150233000Y-125716000D02*
X146383011Y-121866011D01*
%TO.N,Net-(D19-Pad2)*%
X153543000Y-132588000D02*
X155448000Y-130683000D01*
X155448000Y-130683000D02*
X155448000Y-127254000D01*
X155448000Y-127254000D02*
X155702000Y-127000000D01*
X155702000Y-127000000D02*
X163660002Y-127000000D01*
%TO.N,Net-(D11-Pad1)*%
X139192000Y-126746000D02*
X139065000Y-126619000D01*
X140208000Y-127762000D02*
X139192000Y-126746000D01*
X153670000Y-125730000D02*
X151638000Y-127762000D01*
X151638000Y-127762000D02*
X140208000Y-127762000D01*
X120483011Y-124118989D02*
X118999000Y-125603000D01*
X139065000Y-124460000D02*
X138723989Y-124118989D01*
X139065000Y-126619000D02*
X139065000Y-124460000D01*
X160782000Y-125730000D02*
X153670000Y-125730000D01*
X138723989Y-124118989D02*
X120483011Y-124118989D01*
%TO.N,Net-(J2-Pad10)*%
X128905000Y-122301000D02*
X128905000Y-121412000D01*
%TO.N,Net-(D12-Pad2)*%
X163195000Y-129540000D02*
X161925000Y-130810000D01*
X167640000Y-129540000D02*
X163195000Y-129540000D01*
D15*
%TO.N,Net-(J3-Pad10)*%
X92075000Y-128905000D02*
X88265000Y-132715000D01*
X88265000Y-132715000D02*
X88265000Y-132775000D01*
X92075000Y-128905000D02*
X92075000Y-126224000D01*
X92075000Y-126224000D02*
X92583000Y-125716000D01*
X88265000Y-132775000D02*
X88265000Y-136275000D01*
%TD*%
M02*
