%TF.GenerationSoftware,KiCad,Pcbnew,(5.99.0-9393-ga28cb98626)*%
%TF.CreationDate,2021-02-27T14:03:50-08:00*%
%TF.ProjectId,AuxRelays,41757852-656c-4617-9973-2e6b69636164,n/c*%
%TF.SameCoordinates,Original*%
%TF.FileFunction,Legend,Top*%
%TF.FilePolarity,Positive*%
%FSLAX46Y46*%
G04 Gerber Fmt 4.6, Leading zero omitted, Abs format (unit mm)*
G04 Created by KiCad (PCBNEW (5.99.0-9393-ga28cb98626)) date 2021-02-27 14:03:50*
%MOMM*%
%LPD*%
G01*
G04 APERTURE LIST*
G04 Aperture macros list*
%AMRoundRect*
0 Rectangle with rounded corners*
0 $1 Rounding radius*
0 $2 $3 $4 $5 $6 $7 $8 $9 X,Y pos of 4 corners*
0 Add a 4 corners polygon primitive as box body*
4,1,4,$2,$3,$4,$5,$6,$7,$8,$9,$2,$3,0*
0 Add four circle primitives for the rounded corners*
1,1,$1+$1,$2,$3*
1,1,$1+$1,$4,$5*
1,1,$1+$1,$6,$7*
1,1,$1+$1,$8,$9*
0 Add four rect primitives between the rounded corners*
20,1,$1+$1,$2,$3,$4,$5,0*
20,1,$1+$1,$4,$5,$6,$7,0*
20,1,$1+$1,$6,$7,$8,$9,0*
20,1,$1+$1,$8,$9,$2,$3,0*%
G04 Aperture macros list end*
%ADD10C,0.150000*%
%ADD11C,0.120000*%
%ADD12C,2.286000*%
%ADD13RoundRect,0.250000X-0.350000X-0.450000X0.350000X-0.450000X0.350000X0.450000X-0.350000X0.450000X0*%
%ADD14RoundRect,0.250000X0.350000X0.450000X-0.350000X0.450000X-0.350000X-0.450000X0.350000X-0.450000X0*%
%ADD15RoundRect,0.150000X-0.825000X-0.150000X0.825000X-0.150000X0.825000X0.150000X-0.825000X0.150000X0*%
%ADD16RoundRect,0.250001X-0.462499X-0.624999X0.462499X-0.624999X0.462499X0.624999X-0.462499X0.624999X0*%
%ADD17C,2.400000*%
%ADD18R,2.400000X2.400000*%
%ADD19R,1.800000X2.500000*%
%ADD20R,2.500000X1.800000*%
G04 APERTURE END LIST*
D10*
X108650000Y-137326666D02*
X109126190Y-137326666D01*
X108554761Y-137612380D02*
X108888095Y-136612380D01*
X109221428Y-137612380D01*
X109983333Y-136945714D02*
X109983333Y-137612380D01*
X109554761Y-136945714D02*
X109554761Y-137469523D01*
X109602380Y-137564761D01*
X109697619Y-137612380D01*
X109840476Y-137612380D01*
X109935714Y-137564761D01*
X109983333Y-137517142D01*
X110364285Y-137612380D02*
X110888095Y-136945714D01*
X110364285Y-136945714D02*
X110888095Y-137612380D01*
X112602380Y-137612380D02*
X112269047Y-137136190D01*
X112030952Y-137612380D02*
X112030952Y-136612380D01*
X112411904Y-136612380D01*
X112507142Y-136660000D01*
X112554761Y-136707619D01*
X112602380Y-136802857D01*
X112602380Y-136945714D01*
X112554761Y-137040952D01*
X112507142Y-137088571D01*
X112411904Y-137136190D01*
X112030952Y-137136190D01*
X113411904Y-137564761D02*
X113316666Y-137612380D01*
X113126190Y-137612380D01*
X113030952Y-137564761D01*
X112983333Y-137469523D01*
X112983333Y-137088571D01*
X113030952Y-136993333D01*
X113126190Y-136945714D01*
X113316666Y-136945714D01*
X113411904Y-136993333D01*
X113459523Y-137088571D01*
X113459523Y-137183809D01*
X112983333Y-137279047D01*
X114030952Y-137612380D02*
X113935714Y-137564761D01*
X113888095Y-137469523D01*
X113888095Y-136612380D01*
X114840476Y-137612380D02*
X114840476Y-137088571D01*
X114792857Y-136993333D01*
X114697619Y-136945714D01*
X114507142Y-136945714D01*
X114411904Y-136993333D01*
X114840476Y-137564761D02*
X114745238Y-137612380D01*
X114507142Y-137612380D01*
X114411904Y-137564761D01*
X114364285Y-137469523D01*
X114364285Y-137374285D01*
X114411904Y-137279047D01*
X114507142Y-137231428D01*
X114745238Y-137231428D01*
X114840476Y-137183809D01*
X115221428Y-136945714D02*
X115459523Y-137612380D01*
X115697619Y-136945714D02*
X115459523Y-137612380D01*
X115364285Y-137850476D01*
X115316666Y-137898095D01*
X115221428Y-137945714D01*
X116030952Y-137564761D02*
X116126190Y-137612380D01*
X116316666Y-137612380D01*
X116411904Y-137564761D01*
X116459523Y-137469523D01*
X116459523Y-137421904D01*
X116411904Y-137326666D01*
X116316666Y-137279047D01*
X116173809Y-137279047D01*
X116078571Y-137231428D01*
X116030952Y-137136190D01*
X116030952Y-137088571D01*
X116078571Y-136993333D01*
X116173809Y-136945714D01*
X116316666Y-136945714D01*
X116411904Y-136993333D01*
X118221428Y-137612380D02*
X117888095Y-137136190D01*
X117650000Y-137612380D02*
X117650000Y-136612380D01*
X118030952Y-136612380D01*
X118126190Y-136660000D01*
X118173809Y-136707619D01*
X118221428Y-136802857D01*
X118221428Y-136945714D01*
X118173809Y-137040952D01*
X118126190Y-137088571D01*
X118030952Y-137136190D01*
X117650000Y-137136190D01*
X119030952Y-137564761D02*
X118935714Y-137612380D01*
X118745238Y-137612380D01*
X118650000Y-137564761D01*
X118602380Y-137469523D01*
X118602380Y-137088571D01*
X118650000Y-136993333D01*
X118745238Y-136945714D01*
X118935714Y-136945714D01*
X119030952Y-136993333D01*
X119078571Y-137088571D01*
X119078571Y-137183809D01*
X118602380Y-137279047D01*
X119411904Y-136945714D02*
X119650000Y-137612380D01*
X119888095Y-136945714D01*
X121030952Y-136945714D02*
X121030952Y-137612380D01*
X121030952Y-137040952D02*
X121078571Y-136993333D01*
X121173809Y-136945714D01*
X121316666Y-136945714D01*
X121411904Y-136993333D01*
X121459523Y-137088571D01*
X121459523Y-137612380D01*
X122650000Y-136564761D02*
X121792857Y-137850476D01*
X123411904Y-137564761D02*
X123316666Y-137612380D01*
X123126190Y-137612380D01*
X123030952Y-137564761D01*
X122983333Y-137517142D01*
X122935714Y-137421904D01*
X122935714Y-137136190D01*
X122983333Y-137040952D01*
X123030952Y-136993333D01*
X123126190Y-136945714D01*
X123316666Y-136945714D01*
X123411904Y-136993333D01*
X124602380Y-137612380D02*
X124602380Y-136612380D01*
X124840476Y-136612380D01*
X124983333Y-136660000D01*
X125078571Y-136755238D01*
X125126190Y-136850476D01*
X125173809Y-137040952D01*
X125173809Y-137183809D01*
X125126190Y-137374285D01*
X125078571Y-137469523D01*
X124983333Y-137564761D01*
X124840476Y-137612380D01*
X124602380Y-137612380D01*
X125602380Y-137612380D02*
X125602380Y-136612380D01*
X125935714Y-137326666D01*
X126269047Y-136612380D01*
X126269047Y-137612380D01*
X127078571Y-137088571D02*
X126745238Y-137088571D01*
X126745238Y-137612380D02*
X126745238Y-136612380D01*
X127221428Y-136612380D01*
X127602380Y-137088571D02*
X127935714Y-137088571D01*
X128078571Y-137612380D02*
X127602380Y-137612380D01*
X127602380Y-136612380D01*
X128078571Y-136612380D01*
X129221428Y-136707619D02*
X129269047Y-136660000D01*
X129364285Y-136612380D01*
X129602380Y-136612380D01*
X129697619Y-136660000D01*
X129745238Y-136707619D01*
X129792857Y-136802857D01*
X129792857Y-136898095D01*
X129745238Y-137040952D01*
X129173809Y-137612380D01*
X129792857Y-137612380D01*
X130411904Y-136612380D02*
X130507142Y-136612380D01*
X130602380Y-136660000D01*
X130649999Y-136707619D01*
X130697619Y-136802857D01*
X130745238Y-136993333D01*
X130745238Y-137231428D01*
X130697619Y-137421904D01*
X130649999Y-137517142D01*
X130602380Y-137564761D01*
X130507142Y-137612380D01*
X130411904Y-137612380D01*
X130316666Y-137564761D01*
X130269047Y-137517142D01*
X130221428Y-137421904D01*
X130173809Y-137231428D01*
X130173809Y-136993333D01*
X130221428Y-136802857D01*
X130269047Y-136707619D01*
X130316666Y-136660000D01*
X130411904Y-136612380D01*
X131126190Y-136707619D02*
X131173809Y-136660000D01*
X131269047Y-136612380D01*
X131507142Y-136612380D01*
X131602380Y-136660000D01*
X131649999Y-136707619D01*
X131697619Y-136802857D01*
X131697619Y-136898095D01*
X131649999Y-137040952D01*
X131078571Y-137612380D01*
X131697619Y-137612380D01*
X132649999Y-137612380D02*
X132078571Y-137612380D01*
X132364285Y-137612380D02*
X132364285Y-136612380D01*
X132269047Y-136755238D01*
X132173809Y-136850476D01*
X132078571Y-136898095D01*
X92162380Y-137560714D02*
X92162380Y-136989285D01*
X93162380Y-137275000D02*
X92162380Y-137275000D01*
X93162380Y-136084523D02*
X92686190Y-136417857D01*
X93162380Y-136655952D02*
X92162380Y-136655952D01*
X92162380Y-136275000D01*
X92210000Y-136179761D01*
X92257619Y-136132142D01*
X92352857Y-136084523D01*
X92495714Y-136084523D01*
X92590952Y-136132142D01*
X92638571Y-136179761D01*
X92686190Y-136275000D01*
X92686190Y-136655952D01*
X93162380Y-135655952D02*
X92162380Y-135655952D01*
X93162380Y-135084523D02*
X92590952Y-135513095D01*
X92162380Y-135084523D02*
X92733809Y-135655952D01*
X85177380Y-134000714D02*
X85177380Y-133429285D01*
X86177380Y-133715000D02*
X85177380Y-133715000D01*
X86177380Y-132524523D02*
X85701190Y-132857857D01*
X86177380Y-133095952D02*
X85177380Y-133095952D01*
X85177380Y-132715000D01*
X85225000Y-132619761D01*
X85272619Y-132572142D01*
X85367857Y-132524523D01*
X85510714Y-132524523D01*
X85605952Y-132572142D01*
X85653571Y-132619761D01*
X85701190Y-132715000D01*
X85701190Y-133095952D01*
X86177380Y-132095952D02*
X85177380Y-132095952D01*
X86177380Y-131524523D02*
X85605952Y-131953095D01*
X85177380Y-131524523D02*
X85748809Y-132095952D01*
X90305000Y-129666904D02*
X90257380Y-129762142D01*
X90257380Y-129905000D01*
X90305000Y-130047857D01*
X90400238Y-130143095D01*
X90495476Y-130190714D01*
X90685952Y-130238333D01*
X90828809Y-130238333D01*
X91019285Y-130190714D01*
X91114523Y-130143095D01*
X91209761Y-130047857D01*
X91257380Y-129905000D01*
X91257380Y-129809761D01*
X91209761Y-129666904D01*
X91162142Y-129619285D01*
X90828809Y-129619285D01*
X90828809Y-129809761D01*
X91257380Y-129190714D02*
X90257380Y-129190714D01*
X91257380Y-128619285D01*
X90257380Y-128619285D01*
X91257380Y-128143095D02*
X90257380Y-128143095D01*
X90257380Y-127905000D01*
X90305000Y-127762142D01*
X90400238Y-127666904D01*
X90495476Y-127619285D01*
X90685952Y-127571666D01*
X90828809Y-127571666D01*
X91019285Y-127619285D01*
X91114523Y-127666904D01*
X91209761Y-127762142D01*
X91257380Y-127905000D01*
X91257380Y-128143095D01*
X85225000Y-126491904D02*
X85177380Y-126587142D01*
X85177380Y-126730000D01*
X85225000Y-126872857D01*
X85320238Y-126968095D01*
X85415476Y-127015714D01*
X85605952Y-127063333D01*
X85748809Y-127063333D01*
X85939285Y-127015714D01*
X86034523Y-126968095D01*
X86129761Y-126872857D01*
X86177380Y-126730000D01*
X86177380Y-126634761D01*
X86129761Y-126491904D01*
X86082142Y-126444285D01*
X85748809Y-126444285D01*
X85748809Y-126634761D01*
X86177380Y-126015714D02*
X85177380Y-126015714D01*
X86177380Y-125444285D01*
X85177380Y-125444285D01*
X86177380Y-124968095D02*
X85177380Y-124968095D01*
X85177380Y-124730000D01*
X85225000Y-124587142D01*
X85320238Y-124491904D01*
X85415476Y-124444285D01*
X85605952Y-124396666D01*
X85748809Y-124396666D01*
X85939285Y-124444285D01*
X86034523Y-124491904D01*
X86129761Y-124587142D01*
X86177380Y-124730000D01*
X86177380Y-124968095D01*
X86177380Y-121316428D02*
X85177380Y-121316428D01*
X86177380Y-120745000D01*
X85177380Y-120745000D01*
X85177380Y-120364047D02*
X86177380Y-119697380D01*
X85177380Y-119697380D02*
X86177380Y-120364047D01*
X85177380Y-119459285D02*
X85177380Y-118887857D01*
X86177380Y-119173571D02*
X85177380Y-119173571D01*
X86082142Y-117983095D02*
X86129761Y-118030714D01*
X86177380Y-118173571D01*
X86177380Y-118268809D01*
X86129761Y-118411666D01*
X86034523Y-118506904D01*
X85939285Y-118554523D01*
X85748809Y-118602142D01*
X85605952Y-118602142D01*
X85415476Y-118554523D01*
X85320238Y-118506904D01*
X85225000Y-118411666D01*
X85177380Y-118268809D01*
X85177380Y-118173571D01*
X85225000Y-118030714D01*
X85272619Y-117983095D01*
X85891666Y-117602142D02*
X85891666Y-117125952D01*
X86177380Y-117697380D02*
X85177380Y-117364047D01*
X86177380Y-117030714D01*
X85653571Y-116364047D02*
X85701190Y-116221190D01*
X85748809Y-116173571D01*
X85844047Y-116125952D01*
X85986904Y-116125952D01*
X86082142Y-116173571D01*
X86129761Y-116221190D01*
X86177380Y-116316428D01*
X86177380Y-116697380D01*
X85177380Y-116697380D01*
X85177380Y-116364047D01*
X85225000Y-116268809D01*
X85272619Y-116221190D01*
X85367857Y-116173571D01*
X85463095Y-116173571D01*
X85558333Y-116221190D01*
X85605952Y-116268809D01*
X85653571Y-116364047D01*
X85653571Y-116697380D01*
X91257380Y-118331904D02*
X90257380Y-118331904D01*
X90590714Y-117855714D02*
X91257380Y-117855714D01*
X90685952Y-117855714D02*
X90638333Y-117808095D01*
X90590714Y-117712857D01*
X90590714Y-117570000D01*
X90638333Y-117474761D01*
X90733571Y-117427142D01*
X91257380Y-117427142D01*
X90257380Y-116950952D02*
X91066904Y-116950952D01*
X91162142Y-116903333D01*
X91209761Y-116855714D01*
X91257380Y-116760476D01*
X91257380Y-116570000D01*
X91209761Y-116474761D01*
X91162142Y-116427142D01*
X91066904Y-116379523D01*
X90257380Y-116379523D01*
X91209761Y-115950952D02*
X91257380Y-115855714D01*
X91257380Y-115665238D01*
X91209761Y-115570000D01*
X91114523Y-115522380D01*
X91066904Y-115522380D01*
X90971666Y-115570000D01*
X90924047Y-115665238D01*
X90924047Y-115808095D01*
X90876428Y-115903333D01*
X90781190Y-115950952D01*
X90733571Y-115950952D01*
X90638333Y-115903333D01*
X90590714Y-115808095D01*
X90590714Y-115665238D01*
X90638333Y-115570000D01*
X91209761Y-114712857D02*
X91257380Y-114808095D01*
X91257380Y-114998571D01*
X91209761Y-115093809D01*
X91114523Y-115141428D01*
X90733571Y-115141428D01*
X90638333Y-115093809D01*
X90590714Y-114998571D01*
X90590714Y-114808095D01*
X90638333Y-114712857D01*
X90733571Y-114665238D01*
X90828809Y-114665238D01*
X90924047Y-115141428D01*
X90352619Y-114284285D02*
X90305000Y-114236666D01*
X90257380Y-114141428D01*
X90257380Y-113903333D01*
X90305000Y-113808095D01*
X90352619Y-113760476D01*
X90447857Y-113712857D01*
X90543095Y-113712857D01*
X90685952Y-113760476D01*
X91257380Y-114331904D01*
X91257380Y-113712857D01*
X90590714Y-112855714D02*
X91257380Y-112855714D01*
X90209761Y-113093809D02*
X90924047Y-113331904D01*
X90924047Y-112712857D01*
X86177380Y-114902857D02*
X85177380Y-114902857D01*
X85510714Y-114426666D02*
X86177380Y-114426666D01*
X85605952Y-114426666D02*
X85558333Y-114379047D01*
X85510714Y-114283809D01*
X85510714Y-114140952D01*
X85558333Y-114045714D01*
X85653571Y-113998095D01*
X86177380Y-113998095D01*
X85177380Y-113521904D02*
X85986904Y-113521904D01*
X86082142Y-113474285D01*
X86129761Y-113426666D01*
X86177380Y-113331428D01*
X86177380Y-113140952D01*
X86129761Y-113045714D01*
X86082142Y-112998095D01*
X85986904Y-112950476D01*
X85177380Y-112950476D01*
X86129761Y-112521904D02*
X86177380Y-112426666D01*
X86177380Y-112236190D01*
X86129761Y-112140952D01*
X86034523Y-112093333D01*
X85986904Y-112093333D01*
X85891666Y-112140952D01*
X85844047Y-112236190D01*
X85844047Y-112379047D01*
X85796428Y-112474285D01*
X85701190Y-112521904D01*
X85653571Y-112521904D01*
X85558333Y-112474285D01*
X85510714Y-112379047D01*
X85510714Y-112236190D01*
X85558333Y-112140952D01*
X86129761Y-111283809D02*
X86177380Y-111379047D01*
X86177380Y-111569523D01*
X86129761Y-111664761D01*
X86034523Y-111712380D01*
X85653571Y-111712380D01*
X85558333Y-111664761D01*
X85510714Y-111569523D01*
X85510714Y-111379047D01*
X85558333Y-111283809D01*
X85653571Y-111236190D01*
X85748809Y-111236190D01*
X85844047Y-111712380D01*
X85272619Y-110855238D02*
X85225000Y-110807619D01*
X85177380Y-110712380D01*
X85177380Y-110474285D01*
X85225000Y-110379047D01*
X85272619Y-110331428D01*
X85367857Y-110283809D01*
X85463095Y-110283809D01*
X85605952Y-110331428D01*
X86177380Y-110902857D01*
X86177380Y-110283809D01*
X85510714Y-109426666D02*
X86177380Y-109426666D01*
X85129761Y-109664761D02*
X85844047Y-109902857D01*
X85844047Y-109283809D01*
X85177380Y-108760000D02*
X85415476Y-108760000D01*
X85320238Y-108998095D02*
X85415476Y-108760000D01*
X85320238Y-108521904D01*
X85605952Y-108902857D02*
X85415476Y-108760000D01*
X85605952Y-108617142D01*
X90733571Y-110592857D02*
X90781190Y-110450000D01*
X90828809Y-110402380D01*
X90924047Y-110354761D01*
X91066904Y-110354761D01*
X91162142Y-110402380D01*
X91209761Y-110450000D01*
X91257380Y-110545238D01*
X91257380Y-110926190D01*
X90257380Y-110926190D01*
X90257380Y-110592857D01*
X90305000Y-110497619D01*
X90352619Y-110450000D01*
X90447857Y-110402380D01*
X90543095Y-110402380D01*
X90638333Y-110450000D01*
X90685952Y-110497619D01*
X90733571Y-110592857D01*
X90733571Y-110926190D01*
X91257380Y-109783333D02*
X91209761Y-109878571D01*
X91114523Y-109926190D01*
X90257380Y-109926190D01*
X91257380Y-109402380D02*
X90257380Y-109402380D01*
X90876428Y-109307142D02*
X91257380Y-109021428D01*
X90590714Y-109021428D02*
X90971666Y-109402380D01*
X91257380Y-108592857D02*
X90257380Y-108592857D01*
X90590714Y-108116666D02*
X91257380Y-108116666D01*
X90685952Y-108116666D02*
X90638333Y-108069047D01*
X90590714Y-107973809D01*
X90590714Y-107830952D01*
X90638333Y-107735714D01*
X90733571Y-107688095D01*
X91257380Y-107688095D01*
X90257380Y-107211904D02*
X91066904Y-107211904D01*
X91162142Y-107164285D01*
X91209761Y-107116666D01*
X91257380Y-107021428D01*
X91257380Y-106830952D01*
X91209761Y-106735714D01*
X91162142Y-106688095D01*
X91066904Y-106640476D01*
X90257380Y-106640476D01*
X91209761Y-106211904D02*
X91257380Y-106116666D01*
X91257380Y-105926190D01*
X91209761Y-105830952D01*
X91114523Y-105783333D01*
X91066904Y-105783333D01*
X90971666Y-105830952D01*
X90924047Y-105926190D01*
X90924047Y-106069047D01*
X90876428Y-106164285D01*
X90781190Y-106211904D01*
X90733571Y-106211904D01*
X90638333Y-106164285D01*
X90590714Y-106069047D01*
X90590714Y-105926190D01*
X90638333Y-105830952D01*
X91209761Y-104973809D02*
X91257380Y-105069047D01*
X91257380Y-105259523D01*
X91209761Y-105354761D01*
X91114523Y-105402380D01*
X90733571Y-105402380D01*
X90638333Y-105354761D01*
X90590714Y-105259523D01*
X90590714Y-105069047D01*
X90638333Y-104973809D01*
X90733571Y-104926190D01*
X90828809Y-104926190D01*
X90924047Y-105402380D01*
X85653571Y-105941666D02*
X85653571Y-105608333D01*
X86177380Y-105465476D02*
X86177380Y-105941666D01*
X85177380Y-105941666D01*
X85177380Y-105465476D01*
X86177380Y-105036904D02*
X85177380Y-105036904D01*
X86177380Y-104465476D01*
X85177380Y-104465476D01*
X85891666Y-104036904D02*
X85891666Y-103560714D01*
X86177380Y-104132142D02*
X85177380Y-103798809D01*
X86177380Y-103465476D01*
X171418333Y-110418571D02*
X171561190Y-110466190D01*
X171608809Y-110513809D01*
X171656428Y-110609047D01*
X171656428Y-110751904D01*
X171608809Y-110847142D01*
X171561190Y-110894761D01*
X171465952Y-110942380D01*
X171085000Y-110942380D01*
X171085000Y-109942380D01*
X171418333Y-109942380D01*
X171513571Y-109990000D01*
X171561190Y-110037619D01*
X171608809Y-110132857D01*
X171608809Y-110228095D01*
X171561190Y-110323333D01*
X171513571Y-110370952D01*
X171418333Y-110418571D01*
X171085000Y-110418571D01*
X172085000Y-110942380D02*
X172085000Y-109942380D01*
X172561190Y-110942380D02*
X172561190Y-109942380D01*
X172799285Y-109942380D01*
X172942142Y-109990000D01*
X173037380Y-110085238D01*
X173085000Y-110180476D01*
X173132619Y-110370952D01*
X173132619Y-110513809D01*
X173085000Y-110704285D01*
X173037380Y-110799523D01*
X172942142Y-110894761D01*
X172799285Y-110942380D01*
X172561190Y-110942380D01*
X167417857Y-104703571D02*
X167084523Y-104703571D01*
X167084523Y-105227380D02*
X167084523Y-104227380D01*
X167560714Y-104227380D01*
X168275000Y-104703571D02*
X168417857Y-104751190D01*
X168465476Y-104798809D01*
X168513095Y-104894047D01*
X168513095Y-105036904D01*
X168465476Y-105132142D01*
X168417857Y-105179761D01*
X168322619Y-105227380D01*
X167941666Y-105227380D01*
X167941666Y-104227380D01*
X168275000Y-104227380D01*
X168370238Y-104275000D01*
X168417857Y-104322619D01*
X168465476Y-104417857D01*
X168465476Y-104513095D01*
X168417857Y-104608333D01*
X168370238Y-104655952D01*
X168275000Y-104703571D01*
X167941666Y-104703571D01*
X169513095Y-105227380D02*
X169179761Y-104751190D01*
X168941666Y-105227380D02*
X168941666Y-104227380D01*
X169322619Y-104227380D01*
X169417857Y-104275000D01*
X169465476Y-104322619D01*
X169513095Y-104417857D01*
X169513095Y-104560714D01*
X169465476Y-104655952D01*
X169417857Y-104703571D01*
X169322619Y-104751190D01*
X168941666Y-104751190D01*
X163361904Y-110418571D02*
X163504761Y-110466190D01*
X163552380Y-110513809D01*
X163600000Y-110609047D01*
X163600000Y-110751904D01*
X163552380Y-110847142D01*
X163504761Y-110894761D01*
X163409523Y-110942380D01*
X163028571Y-110942380D01*
X163028571Y-109942380D01*
X163361904Y-109942380D01*
X163457142Y-109990000D01*
X163504761Y-110037619D01*
X163552380Y-110132857D01*
X163552380Y-110228095D01*
X163504761Y-110323333D01*
X163457142Y-110370952D01*
X163361904Y-110418571D01*
X163028571Y-110418571D01*
X164028571Y-110942380D02*
X164028571Y-110275714D01*
X164028571Y-109942380D02*
X163980952Y-109990000D01*
X164028571Y-110037619D01*
X164076190Y-109990000D01*
X164028571Y-109942380D01*
X164028571Y-110037619D01*
X164933333Y-110942380D02*
X164933333Y-109942380D01*
X164933333Y-110894761D02*
X164838095Y-110942380D01*
X164647619Y-110942380D01*
X164552380Y-110894761D01*
X164504761Y-110847142D01*
X164457142Y-110751904D01*
X164457142Y-110466190D01*
X164504761Y-110370952D01*
X164552380Y-110323333D01*
X164647619Y-110275714D01*
X164838095Y-110275714D01*
X164933333Y-110323333D01*
X165409523Y-110561428D02*
X166171428Y-110561428D01*
X167171428Y-109990000D02*
X167076190Y-109942380D01*
X166933333Y-109942380D01*
X166790476Y-109990000D01*
X166695238Y-110085238D01*
X166647619Y-110180476D01*
X166600000Y-110370952D01*
X166600000Y-110513809D01*
X166647619Y-110704285D01*
X166695238Y-110799523D01*
X166790476Y-110894761D01*
X166933333Y-110942380D01*
X167028571Y-110942380D01*
X167171428Y-110894761D01*
X167219047Y-110847142D01*
X167219047Y-110513809D01*
X167028571Y-110513809D01*
X159551904Y-104703571D02*
X159694761Y-104751190D01*
X159742380Y-104798809D01*
X159790000Y-104894047D01*
X159790000Y-105036904D01*
X159742380Y-105132142D01*
X159694761Y-105179761D01*
X159599523Y-105227380D01*
X159218571Y-105227380D01*
X159218571Y-104227380D01*
X159551904Y-104227380D01*
X159647142Y-104275000D01*
X159694761Y-104322619D01*
X159742380Y-104417857D01*
X159742380Y-104513095D01*
X159694761Y-104608333D01*
X159647142Y-104655952D01*
X159551904Y-104703571D01*
X159218571Y-104703571D01*
X160218571Y-105227380D02*
X160218571Y-104560714D01*
X160218571Y-104227380D02*
X160170952Y-104275000D01*
X160218571Y-104322619D01*
X160266190Y-104275000D01*
X160218571Y-104227380D01*
X160218571Y-104322619D01*
X161123333Y-105227380D02*
X161123333Y-104227380D01*
X161123333Y-105179761D02*
X161028095Y-105227380D01*
X160837619Y-105227380D01*
X160742380Y-105179761D01*
X160694761Y-105132142D01*
X160647142Y-105036904D01*
X160647142Y-104751190D01*
X160694761Y-104655952D01*
X160742380Y-104608333D01*
X160837619Y-104560714D01*
X161028095Y-104560714D01*
X161123333Y-104608333D01*
X161599523Y-104846428D02*
X162361428Y-104846428D01*
X163409047Y-105227380D02*
X163075714Y-104751190D01*
X162837619Y-105227380D02*
X162837619Y-104227380D01*
X163218571Y-104227380D01*
X163313809Y-104275000D01*
X163361428Y-104322619D01*
X163409047Y-104417857D01*
X163409047Y-104560714D01*
X163361428Y-104655952D01*
X163313809Y-104703571D01*
X163218571Y-104751190D01*
X162837619Y-104751190D01*
X156948333Y-109942380D02*
X157186428Y-110942380D01*
X157376904Y-110228095D01*
X157567380Y-110942380D01*
X157805476Y-109942380D01*
X158186428Y-110942380D02*
X158186428Y-109942380D01*
X158615000Y-110942380D02*
X158615000Y-110418571D01*
X158567380Y-110323333D01*
X158472142Y-110275714D01*
X158329285Y-110275714D01*
X158234047Y-110323333D01*
X158186428Y-110370952D01*
X158948333Y-110275714D02*
X159329285Y-110275714D01*
X159091190Y-109942380D02*
X159091190Y-110799523D01*
X159138809Y-110894761D01*
X159234047Y-110942380D01*
X159329285Y-110942380D01*
X153733571Y-105227380D02*
X153400238Y-104751190D01*
X153162142Y-105227380D02*
X153162142Y-104227380D01*
X153543095Y-104227380D01*
X153638333Y-104275000D01*
X153685952Y-104322619D01*
X153733571Y-104417857D01*
X153733571Y-104560714D01*
X153685952Y-104655952D01*
X153638333Y-104703571D01*
X153543095Y-104751190D01*
X153162142Y-104751190D01*
X154543095Y-105179761D02*
X154447857Y-105227380D01*
X154257380Y-105227380D01*
X154162142Y-105179761D01*
X154114523Y-105084523D01*
X154114523Y-104703571D01*
X154162142Y-104608333D01*
X154257380Y-104560714D01*
X154447857Y-104560714D01*
X154543095Y-104608333D01*
X154590714Y-104703571D01*
X154590714Y-104798809D01*
X154114523Y-104894047D01*
X155447857Y-105227380D02*
X155447857Y-104227380D01*
X155447857Y-105179761D02*
X155352619Y-105227380D01*
X155162142Y-105227380D01*
X155066904Y-105179761D01*
X155019285Y-105132142D01*
X154971666Y-105036904D01*
X154971666Y-104751190D01*
X155019285Y-104655952D01*
X155066904Y-104608333D01*
X155162142Y-104560714D01*
X155352619Y-104560714D01*
X155447857Y-104608333D01*
X150630000Y-109990000D02*
X150534761Y-109942380D01*
X150391904Y-109942380D01*
X150249047Y-109990000D01*
X150153809Y-110085238D01*
X150106190Y-110180476D01*
X150058571Y-110370952D01*
X150058571Y-110513809D01*
X150106190Y-110704285D01*
X150153809Y-110799523D01*
X150249047Y-110894761D01*
X150391904Y-110942380D01*
X150487142Y-110942380D01*
X150630000Y-110894761D01*
X150677619Y-110847142D01*
X150677619Y-110513809D01*
X150487142Y-110513809D01*
X151106190Y-110942380D02*
X151106190Y-110275714D01*
X151106190Y-110466190D02*
X151153809Y-110370952D01*
X151201428Y-110323333D01*
X151296666Y-110275714D01*
X151391904Y-110275714D01*
X151725238Y-110275714D02*
X151725238Y-110942380D01*
X151725238Y-110370952D02*
X151772857Y-110323333D01*
X151868095Y-110275714D01*
X152010952Y-110275714D01*
X152106190Y-110323333D01*
X152153809Y-110418571D01*
X152153809Y-110942380D01*
X145724761Y-104227380D02*
X146296190Y-104227380D01*
X146010476Y-105227380D02*
X146010476Y-104227380D01*
X146629523Y-104846428D02*
X147391428Y-104846428D01*
X147867619Y-105227380D02*
X147867619Y-104227380D01*
X148343809Y-104560714D02*
X148343809Y-105227380D01*
X148343809Y-104655952D02*
X148391428Y-104608333D01*
X148486666Y-104560714D01*
X148629523Y-104560714D01*
X148724761Y-104608333D01*
X148772380Y-104703571D01*
X148772380Y-105227380D01*
X142549761Y-109942380D02*
X143121190Y-109942380D01*
X142835476Y-110942380D02*
X142835476Y-109942380D01*
X143454523Y-110561428D02*
X144216428Y-110561428D01*
X144692619Y-110942380D02*
X144692619Y-109942380D01*
X145168809Y-110275714D02*
X145168809Y-110942380D01*
X145168809Y-110370952D02*
X145216428Y-110323333D01*
X145311666Y-110275714D01*
X145454523Y-110275714D01*
X145549761Y-110323333D01*
X145597380Y-110418571D01*
X145597380Y-110942380D01*
X138287380Y-104227380D02*
X138477857Y-104227380D01*
X138573095Y-104275000D01*
X138668333Y-104370238D01*
X138715952Y-104560714D01*
X138715952Y-104894047D01*
X138668333Y-105084523D01*
X138573095Y-105179761D01*
X138477857Y-105227380D01*
X138287380Y-105227380D01*
X138192142Y-105179761D01*
X138096904Y-105084523D01*
X138049285Y-104894047D01*
X138049285Y-104560714D01*
X138096904Y-104370238D01*
X138192142Y-104275000D01*
X138287380Y-104227380D01*
X139715952Y-105132142D02*
X139668333Y-105179761D01*
X139525476Y-105227380D01*
X139430238Y-105227380D01*
X139287380Y-105179761D01*
X139192142Y-105084523D01*
X139144523Y-104989285D01*
X139096904Y-104798809D01*
X139096904Y-104655952D01*
X139144523Y-104465476D01*
X139192142Y-104370238D01*
X139287380Y-104275000D01*
X139430238Y-104227380D01*
X139525476Y-104227380D01*
X139668333Y-104275000D01*
X139715952Y-104322619D01*
X140715952Y-105132142D02*
X140668333Y-105179761D01*
X140525476Y-105227380D01*
X140430238Y-105227380D01*
X140287380Y-105179761D01*
X140192142Y-105084523D01*
X140144523Y-104989285D01*
X140096904Y-104798809D01*
X140096904Y-104655952D01*
X140144523Y-104465476D01*
X140192142Y-104370238D01*
X140287380Y-104275000D01*
X140430238Y-104227380D01*
X140525476Y-104227380D01*
X140668333Y-104275000D01*
X140715952Y-104322619D01*
X141096904Y-104322619D02*
X141144523Y-104275000D01*
X141239761Y-104227380D01*
X141477857Y-104227380D01*
X141573095Y-104275000D01*
X141620714Y-104322619D01*
X141668333Y-104417857D01*
X141668333Y-104513095D01*
X141620714Y-104655952D01*
X141049285Y-105227380D01*
X141668333Y-105227380D01*
X142525476Y-104560714D02*
X142525476Y-105227380D01*
X142287380Y-104179761D02*
X142049285Y-104894047D01*
X142668333Y-104894047D01*
X101414761Y-104227380D02*
X101986190Y-104227380D01*
X101700476Y-105227380D02*
X101700476Y-104227380D01*
X102319523Y-104846428D02*
X103081428Y-104846428D01*
X103557619Y-105227380D02*
X103557619Y-104227380D01*
X104033809Y-104560714D02*
X104033809Y-105227380D01*
X104033809Y-104655952D02*
X104081428Y-104608333D01*
X104176666Y-104560714D01*
X104319523Y-104560714D01*
X104414761Y-104608333D01*
X104462380Y-104703571D01*
X104462380Y-105227380D01*
X126968333Y-104703571D02*
X127111190Y-104751190D01*
X127158809Y-104798809D01*
X127206428Y-104894047D01*
X127206428Y-105036904D01*
X127158809Y-105132142D01*
X127111190Y-105179761D01*
X127015952Y-105227380D01*
X126635000Y-105227380D01*
X126635000Y-104227380D01*
X126968333Y-104227380D01*
X127063571Y-104275000D01*
X127111190Y-104322619D01*
X127158809Y-104417857D01*
X127158809Y-104513095D01*
X127111190Y-104608333D01*
X127063571Y-104655952D01*
X126968333Y-104703571D01*
X126635000Y-104703571D01*
X127635000Y-105227380D02*
X127635000Y-104227380D01*
X128111190Y-105227380D02*
X128111190Y-104227380D01*
X128349285Y-104227380D01*
X128492142Y-104275000D01*
X128587380Y-104370238D01*
X128635000Y-104465476D01*
X128682619Y-104655952D01*
X128682619Y-104798809D01*
X128635000Y-104989285D01*
X128587380Y-105084523D01*
X128492142Y-105179761D01*
X128349285Y-105227380D01*
X128111190Y-105227380D01*
X122967857Y-110418571D02*
X122634523Y-110418571D01*
X122634523Y-110942380D02*
X122634523Y-109942380D01*
X123110714Y-109942380D01*
X123825000Y-110418571D02*
X123967857Y-110466190D01*
X124015476Y-110513809D01*
X124063095Y-110609047D01*
X124063095Y-110751904D01*
X124015476Y-110847142D01*
X123967857Y-110894761D01*
X123872619Y-110942380D01*
X123491666Y-110942380D01*
X123491666Y-109942380D01*
X123825000Y-109942380D01*
X123920238Y-109990000D01*
X123967857Y-110037619D01*
X124015476Y-110132857D01*
X124015476Y-110228095D01*
X123967857Y-110323333D01*
X123920238Y-110370952D01*
X123825000Y-110418571D01*
X123491666Y-110418571D01*
X125063095Y-110942380D02*
X124729761Y-110466190D01*
X124491666Y-110942380D02*
X124491666Y-109942380D01*
X124872619Y-109942380D01*
X124967857Y-109990000D01*
X125015476Y-110037619D01*
X125063095Y-110132857D01*
X125063095Y-110275714D01*
X125015476Y-110370952D01*
X124967857Y-110418571D01*
X124872619Y-110466190D01*
X124491666Y-110466190D01*
X118911904Y-104703571D02*
X119054761Y-104751190D01*
X119102380Y-104798809D01*
X119150000Y-104894047D01*
X119150000Y-105036904D01*
X119102380Y-105132142D01*
X119054761Y-105179761D01*
X118959523Y-105227380D01*
X118578571Y-105227380D01*
X118578571Y-104227380D01*
X118911904Y-104227380D01*
X119007142Y-104275000D01*
X119054761Y-104322619D01*
X119102380Y-104417857D01*
X119102380Y-104513095D01*
X119054761Y-104608333D01*
X119007142Y-104655952D01*
X118911904Y-104703571D01*
X118578571Y-104703571D01*
X119578571Y-105227380D02*
X119578571Y-104560714D01*
X119578571Y-104227380D02*
X119530952Y-104275000D01*
X119578571Y-104322619D01*
X119626190Y-104275000D01*
X119578571Y-104227380D01*
X119578571Y-104322619D01*
X120483333Y-105227380D02*
X120483333Y-104227380D01*
X120483333Y-105179761D02*
X120388095Y-105227380D01*
X120197619Y-105227380D01*
X120102380Y-105179761D01*
X120054761Y-105132142D01*
X120007142Y-105036904D01*
X120007142Y-104751190D01*
X120054761Y-104655952D01*
X120102380Y-104608333D01*
X120197619Y-104560714D01*
X120388095Y-104560714D01*
X120483333Y-104608333D01*
X120959523Y-104846428D02*
X121721428Y-104846428D01*
X122721428Y-104275000D02*
X122626190Y-104227380D01*
X122483333Y-104227380D01*
X122340476Y-104275000D01*
X122245238Y-104370238D01*
X122197619Y-104465476D01*
X122150000Y-104655952D01*
X122150000Y-104798809D01*
X122197619Y-104989285D01*
X122245238Y-105084523D01*
X122340476Y-105179761D01*
X122483333Y-105227380D01*
X122578571Y-105227380D01*
X122721428Y-105179761D01*
X122769047Y-105132142D01*
X122769047Y-104798809D01*
X122578571Y-104798809D01*
X115101904Y-110418571D02*
X115244761Y-110466190D01*
X115292380Y-110513809D01*
X115340000Y-110609047D01*
X115340000Y-110751904D01*
X115292380Y-110847142D01*
X115244761Y-110894761D01*
X115149523Y-110942380D01*
X114768571Y-110942380D01*
X114768571Y-109942380D01*
X115101904Y-109942380D01*
X115197142Y-109990000D01*
X115244761Y-110037619D01*
X115292380Y-110132857D01*
X115292380Y-110228095D01*
X115244761Y-110323333D01*
X115197142Y-110370952D01*
X115101904Y-110418571D01*
X114768571Y-110418571D01*
X115768571Y-110942380D02*
X115768571Y-110275714D01*
X115768571Y-109942380D02*
X115720952Y-109990000D01*
X115768571Y-110037619D01*
X115816190Y-109990000D01*
X115768571Y-109942380D01*
X115768571Y-110037619D01*
X116673333Y-110942380D02*
X116673333Y-109942380D01*
X116673333Y-110894761D02*
X116578095Y-110942380D01*
X116387619Y-110942380D01*
X116292380Y-110894761D01*
X116244761Y-110847142D01*
X116197142Y-110751904D01*
X116197142Y-110466190D01*
X116244761Y-110370952D01*
X116292380Y-110323333D01*
X116387619Y-110275714D01*
X116578095Y-110275714D01*
X116673333Y-110323333D01*
X117149523Y-110561428D02*
X117911428Y-110561428D01*
X118959047Y-110942380D02*
X118625714Y-110466190D01*
X118387619Y-110942380D02*
X118387619Y-109942380D01*
X118768571Y-109942380D01*
X118863809Y-109990000D01*
X118911428Y-110037619D01*
X118959047Y-110132857D01*
X118959047Y-110275714D01*
X118911428Y-110370952D01*
X118863809Y-110418571D01*
X118768571Y-110466190D01*
X118387619Y-110466190D01*
X112498333Y-104275380D02*
X112736428Y-105275380D01*
X112926904Y-104561095D01*
X113117380Y-105275380D01*
X113355476Y-104275380D01*
X113736428Y-105275380D02*
X113736428Y-104275380D01*
X114165000Y-105275380D02*
X114165000Y-104751571D01*
X114117380Y-104656333D01*
X114022142Y-104608714D01*
X113879285Y-104608714D01*
X113784047Y-104656333D01*
X113736428Y-104703952D01*
X114498333Y-104608714D02*
X114879285Y-104608714D01*
X114641190Y-104275380D02*
X114641190Y-105132523D01*
X114688809Y-105227761D01*
X114784047Y-105275380D01*
X114879285Y-105275380D01*
X109283571Y-110942380D02*
X108950238Y-110466190D01*
X108712142Y-110942380D02*
X108712142Y-109942380D01*
X109093095Y-109942380D01*
X109188333Y-109990000D01*
X109235952Y-110037619D01*
X109283571Y-110132857D01*
X109283571Y-110275714D01*
X109235952Y-110370952D01*
X109188333Y-110418571D01*
X109093095Y-110466190D01*
X108712142Y-110466190D01*
X110093095Y-110894761D02*
X109997857Y-110942380D01*
X109807380Y-110942380D01*
X109712142Y-110894761D01*
X109664523Y-110799523D01*
X109664523Y-110418571D01*
X109712142Y-110323333D01*
X109807380Y-110275714D01*
X109997857Y-110275714D01*
X110093095Y-110323333D01*
X110140714Y-110418571D01*
X110140714Y-110513809D01*
X109664523Y-110609047D01*
X110997857Y-110942380D02*
X110997857Y-109942380D01*
X110997857Y-110894761D02*
X110902619Y-110942380D01*
X110712142Y-110942380D01*
X110616904Y-110894761D01*
X110569285Y-110847142D01*
X110521666Y-110751904D01*
X110521666Y-110466190D01*
X110569285Y-110370952D01*
X110616904Y-110323333D01*
X110712142Y-110275714D01*
X110902619Y-110275714D01*
X110997857Y-110323333D01*
X106180000Y-104275000D02*
X106084761Y-104227380D01*
X105941904Y-104227380D01*
X105799047Y-104275000D01*
X105703809Y-104370238D01*
X105656190Y-104465476D01*
X105608571Y-104655952D01*
X105608571Y-104798809D01*
X105656190Y-104989285D01*
X105703809Y-105084523D01*
X105799047Y-105179761D01*
X105941904Y-105227380D01*
X106037142Y-105227380D01*
X106180000Y-105179761D01*
X106227619Y-105132142D01*
X106227619Y-104798809D01*
X106037142Y-104798809D01*
X106656190Y-105227380D02*
X106656190Y-104560714D01*
X106656190Y-104751190D02*
X106703809Y-104655952D01*
X106751428Y-104608333D01*
X106846666Y-104560714D01*
X106941904Y-104560714D01*
X107275238Y-104560714D02*
X107275238Y-105227380D01*
X107275238Y-104655952D02*
X107322857Y-104608333D01*
X107418095Y-104560714D01*
X107560952Y-104560714D01*
X107656190Y-104608333D01*
X107703809Y-104703571D01*
X107703809Y-105227380D01*
X98099761Y-110069380D02*
X98671190Y-110069380D01*
X98385476Y-111069380D02*
X98385476Y-110069380D01*
X99004523Y-110688428D02*
X99766428Y-110688428D01*
X100242619Y-111069380D02*
X100242619Y-110069380D01*
X100718809Y-110402714D02*
X100718809Y-111069380D01*
X100718809Y-110497952D02*
X100766428Y-110450333D01*
X100861666Y-110402714D01*
X101004523Y-110402714D01*
X101099761Y-110450333D01*
X101147380Y-110545571D01*
X101147380Y-111069380D01*
X93710428Y-104227380D02*
X93900904Y-104227380D01*
X93996142Y-104275000D01*
X94091380Y-104370238D01*
X94139000Y-104560714D01*
X94139000Y-104894047D01*
X94091380Y-105084523D01*
X93996142Y-105179761D01*
X93900904Y-105227380D01*
X93710428Y-105227380D01*
X93615190Y-105179761D01*
X93519952Y-105084523D01*
X93472333Y-104894047D01*
X93472333Y-104560714D01*
X93519952Y-104370238D01*
X93615190Y-104275000D01*
X93710428Y-104227380D01*
X95139000Y-105132142D02*
X95091380Y-105179761D01*
X94948523Y-105227380D01*
X94853285Y-105227380D01*
X94710428Y-105179761D01*
X94615190Y-105084523D01*
X94567571Y-104989285D01*
X94519952Y-104798809D01*
X94519952Y-104655952D01*
X94567571Y-104465476D01*
X94615190Y-104370238D01*
X94710428Y-104275000D01*
X94853285Y-104227380D01*
X94948523Y-104227380D01*
X95091380Y-104275000D01*
X95139000Y-104322619D01*
X96139000Y-105132142D02*
X96091380Y-105179761D01*
X95948523Y-105227380D01*
X95853285Y-105227380D01*
X95710428Y-105179761D01*
X95615190Y-105084523D01*
X95567571Y-104989285D01*
X95519952Y-104798809D01*
X95519952Y-104655952D01*
X95567571Y-104465476D01*
X95615190Y-104370238D01*
X95710428Y-104275000D01*
X95853285Y-104227380D01*
X95948523Y-104227380D01*
X96091380Y-104275000D01*
X96139000Y-104322619D01*
X96519952Y-104322619D02*
X96567571Y-104275000D01*
X96662809Y-104227380D01*
X96900904Y-104227380D01*
X96996142Y-104275000D01*
X97043761Y-104322619D01*
X97091380Y-104417857D01*
X97091380Y-104513095D01*
X97043761Y-104655952D01*
X96472333Y-105227380D01*
X97091380Y-105227380D01*
X97948523Y-104560714D02*
X97948523Y-105227380D01*
X97710428Y-104179761D02*
X97472333Y-104894047D01*
X98091380Y-104894047D01*
X98615190Y-104227380D02*
X98615190Y-104465476D01*
X98377095Y-104370238D02*
X98615190Y-104465476D01*
X98853285Y-104370238D01*
X98472333Y-104655952D02*
X98615190Y-104465476D01*
X98758047Y-104655952D01*
%TO.C,R10*%
X152265142Y-135380380D02*
X151931809Y-134904190D01*
X151693714Y-135380380D02*
X151693714Y-134380380D01*
X152074666Y-134380380D01*
X152169904Y-134428000D01*
X152217523Y-134475619D01*
X152265142Y-134570857D01*
X152265142Y-134713714D01*
X152217523Y-134808952D01*
X152169904Y-134856571D01*
X152074666Y-134904190D01*
X151693714Y-134904190D01*
X153217523Y-135380380D02*
X152646095Y-135380380D01*
X152931809Y-135380380D02*
X152931809Y-134380380D01*
X152836571Y-134523238D01*
X152741333Y-134618476D01*
X152646095Y-134666095D01*
X153836571Y-134380380D02*
X153931809Y-134380380D01*
X154027047Y-134428000D01*
X154074666Y-134475619D01*
X154122285Y-134570857D01*
X154169904Y-134761333D01*
X154169904Y-134999428D01*
X154122285Y-135189904D01*
X154074666Y-135285142D01*
X154027047Y-135332761D01*
X153931809Y-135380380D01*
X153836571Y-135380380D01*
X153741333Y-135332761D01*
X153693714Y-135285142D01*
X153646095Y-135189904D01*
X153598476Y-134999428D01*
X153598476Y-134761333D01*
X153646095Y-134570857D01*
X153693714Y-134475619D01*
X153741333Y-134428000D01*
X153836571Y-134380380D01*
%TO.C,R9*%
X152995333Y-133221380D02*
X152662000Y-132745190D01*
X152423904Y-133221380D02*
X152423904Y-132221380D01*
X152804857Y-132221380D01*
X152900095Y-132269000D01*
X152947714Y-132316619D01*
X152995333Y-132411857D01*
X152995333Y-132554714D01*
X152947714Y-132649952D01*
X152900095Y-132697571D01*
X152804857Y-132745190D01*
X152423904Y-132745190D01*
X153471523Y-133221380D02*
X153662000Y-133221380D01*
X153757238Y-133173761D01*
X153804857Y-133126142D01*
X153900095Y-132983285D01*
X153947714Y-132792809D01*
X153947714Y-132411857D01*
X153900095Y-132316619D01*
X153852476Y-132269000D01*
X153757238Y-132221380D01*
X153566761Y-132221380D01*
X153471523Y-132269000D01*
X153423904Y-132316619D01*
X153376285Y-132411857D01*
X153376285Y-132649952D01*
X153423904Y-132745190D01*
X153471523Y-132792809D01*
X153566761Y-132840428D01*
X153757238Y-132840428D01*
X153852476Y-132792809D01*
X153900095Y-132745190D01*
X153947714Y-132649952D01*
%TO.C,R8*%
X152995333Y-131189380D02*
X152662000Y-130713190D01*
X152423904Y-131189380D02*
X152423904Y-130189380D01*
X152804857Y-130189380D01*
X152900095Y-130237000D01*
X152947714Y-130284619D01*
X152995333Y-130379857D01*
X152995333Y-130522714D01*
X152947714Y-130617952D01*
X152900095Y-130665571D01*
X152804857Y-130713190D01*
X152423904Y-130713190D01*
X153566761Y-130617952D02*
X153471523Y-130570333D01*
X153423904Y-130522714D01*
X153376285Y-130427476D01*
X153376285Y-130379857D01*
X153423904Y-130284619D01*
X153471523Y-130237000D01*
X153566761Y-130189380D01*
X153757238Y-130189380D01*
X153852476Y-130237000D01*
X153900095Y-130284619D01*
X153947714Y-130379857D01*
X153947714Y-130427476D01*
X153900095Y-130522714D01*
X153852476Y-130570333D01*
X153757238Y-130617952D01*
X153566761Y-130617952D01*
X153471523Y-130665571D01*
X153423904Y-130713190D01*
X153376285Y-130808428D01*
X153376285Y-130998904D01*
X153423904Y-131094142D01*
X153471523Y-131141761D01*
X153566761Y-131189380D01*
X153757238Y-131189380D01*
X153852476Y-131141761D01*
X153900095Y-131094142D01*
X153947714Y-130998904D01*
X153947714Y-130808428D01*
X153900095Y-130713190D01*
X153852476Y-130665571D01*
X153757238Y-130617952D01*
%TO.C,R7*%
X153106333Y-129284380D02*
X152773000Y-128808190D01*
X152534904Y-129284380D02*
X152534904Y-128284380D01*
X152915857Y-128284380D01*
X153011095Y-128332000D01*
X153058714Y-128379619D01*
X153106333Y-128474857D01*
X153106333Y-128617714D01*
X153058714Y-128712952D01*
X153011095Y-128760571D01*
X152915857Y-128808190D01*
X152534904Y-128808190D01*
X153439666Y-128284380D02*
X154106333Y-128284380D01*
X153677761Y-129284380D01*
%TO.C,R6*%
X146264333Y-135325380D02*
X145931000Y-134849190D01*
X145692904Y-135325380D02*
X145692904Y-134325380D01*
X146073857Y-134325380D01*
X146169095Y-134373000D01*
X146216714Y-134420619D01*
X146264333Y-134515857D01*
X146264333Y-134658714D01*
X146216714Y-134753952D01*
X146169095Y-134801571D01*
X146073857Y-134849190D01*
X145692904Y-134849190D01*
X147121476Y-134325380D02*
X146931000Y-134325380D01*
X146835761Y-134373000D01*
X146788142Y-134420619D01*
X146692904Y-134563476D01*
X146645285Y-134753952D01*
X146645285Y-135134904D01*
X146692904Y-135230142D01*
X146740523Y-135277761D01*
X146835761Y-135325380D01*
X147026238Y-135325380D01*
X147121476Y-135277761D01*
X147169095Y-135230142D01*
X147216714Y-135134904D01*
X147216714Y-134896809D01*
X147169095Y-134801571D01*
X147121476Y-134753952D01*
X147026238Y-134706333D01*
X146835761Y-134706333D01*
X146740523Y-134753952D01*
X146692904Y-134801571D01*
X146645285Y-134896809D01*
%TO.C,R5*%
X108672333Y-135453380D02*
X108339000Y-134977190D01*
X108100904Y-135453380D02*
X108100904Y-134453380D01*
X108481857Y-134453380D01*
X108577095Y-134501000D01*
X108624714Y-134548619D01*
X108672333Y-134643857D01*
X108672333Y-134786714D01*
X108624714Y-134881952D01*
X108577095Y-134929571D01*
X108481857Y-134977190D01*
X108100904Y-134977190D01*
X109577095Y-134453380D02*
X109100904Y-134453380D01*
X109053285Y-134929571D01*
X109100904Y-134881952D01*
X109196142Y-134834333D01*
X109434238Y-134834333D01*
X109529476Y-134881952D01*
X109577095Y-134929571D01*
X109624714Y-135024809D01*
X109624714Y-135262904D01*
X109577095Y-135358142D01*
X109529476Y-135405761D01*
X109434238Y-135453380D01*
X109196142Y-135453380D01*
X109100904Y-135405761D01*
X109053285Y-135358142D01*
%TO.C,R4*%
X108672333Y-133421380D02*
X108339000Y-132945190D01*
X108100904Y-133421380D02*
X108100904Y-132421380D01*
X108481857Y-132421380D01*
X108577095Y-132469000D01*
X108624714Y-132516619D01*
X108672333Y-132611857D01*
X108672333Y-132754714D01*
X108624714Y-132849952D01*
X108577095Y-132897571D01*
X108481857Y-132945190D01*
X108100904Y-132945190D01*
X109529476Y-132754714D02*
X109529476Y-133421380D01*
X109291380Y-132373761D02*
X109053285Y-133088047D01*
X109672333Y-133088047D01*
%TO.C,R3*%
X108561333Y-131389380D02*
X108228000Y-130913190D01*
X107989904Y-131389380D02*
X107989904Y-130389380D01*
X108370857Y-130389380D01*
X108466095Y-130437000D01*
X108513714Y-130484619D01*
X108561333Y-130579857D01*
X108561333Y-130722714D01*
X108513714Y-130817952D01*
X108466095Y-130865571D01*
X108370857Y-130913190D01*
X107989904Y-130913190D01*
X108894666Y-130389380D02*
X109513714Y-130389380D01*
X109180380Y-130770333D01*
X109323238Y-130770333D01*
X109418476Y-130817952D01*
X109466095Y-130865571D01*
X109513714Y-130960809D01*
X109513714Y-131198904D01*
X109466095Y-131294142D01*
X109418476Y-131341761D01*
X109323238Y-131389380D01*
X109037523Y-131389380D01*
X108942285Y-131341761D01*
X108894666Y-131294142D01*
%TO.C,R2*%
X108545333Y-129357380D02*
X108212000Y-128881190D01*
X107973904Y-129357380D02*
X107973904Y-128357380D01*
X108354857Y-128357380D01*
X108450095Y-128405000D01*
X108497714Y-128452619D01*
X108545333Y-128547857D01*
X108545333Y-128690714D01*
X108497714Y-128785952D01*
X108450095Y-128833571D01*
X108354857Y-128881190D01*
X107973904Y-128881190D01*
X108926285Y-128452619D02*
X108973904Y-128405000D01*
X109069142Y-128357380D01*
X109307238Y-128357380D01*
X109402476Y-128405000D01*
X109450095Y-128452619D01*
X109497714Y-128547857D01*
X109497714Y-128643095D01*
X109450095Y-128785952D01*
X108878666Y-129357380D01*
X109497714Y-129357380D01*
%TO.C,R1*%
X101941333Y-135452380D02*
X101608000Y-134976190D01*
X101369904Y-135452380D02*
X101369904Y-134452380D01*
X101750857Y-134452380D01*
X101846095Y-134500000D01*
X101893714Y-134547619D01*
X101941333Y-134642857D01*
X101941333Y-134785714D01*
X101893714Y-134880952D01*
X101846095Y-134928571D01*
X101750857Y-134976190D01*
X101369904Y-134976190D01*
X102893714Y-135452380D02*
X102322285Y-135452380D01*
X102608000Y-135452380D02*
X102608000Y-134452380D01*
X102512761Y-134595238D01*
X102417523Y-134690476D01*
X102322285Y-134738095D01*
%TO.C,Q2*%
X159908761Y-128900619D02*
X159813523Y-128853000D01*
X159718285Y-128757761D01*
X159575428Y-128614904D01*
X159480190Y-128567285D01*
X159384952Y-128567285D01*
X159432571Y-128805380D02*
X159337333Y-128757761D01*
X159242095Y-128662523D01*
X159194476Y-128472047D01*
X159194476Y-128138714D01*
X159242095Y-127948238D01*
X159337333Y-127853000D01*
X159432571Y-127805380D01*
X159623047Y-127805380D01*
X159718285Y-127853000D01*
X159813523Y-127948238D01*
X159861142Y-128138714D01*
X159861142Y-128472047D01*
X159813523Y-128662523D01*
X159718285Y-128757761D01*
X159623047Y-128805380D01*
X159432571Y-128805380D01*
X160242095Y-127900619D02*
X160289714Y-127853000D01*
X160384952Y-127805380D01*
X160623047Y-127805380D01*
X160718285Y-127853000D01*
X160765904Y-127900619D01*
X160813523Y-127995857D01*
X160813523Y-128091095D01*
X160765904Y-128233952D01*
X160194476Y-128805380D01*
X160813523Y-128805380D01*
%TO.C,Q1*%
X117760761Y-128973619D02*
X117665523Y-128926000D01*
X117570285Y-128830761D01*
X117427428Y-128687904D01*
X117332190Y-128640285D01*
X117236952Y-128640285D01*
X117284571Y-128878380D02*
X117189333Y-128830761D01*
X117094095Y-128735523D01*
X117046476Y-128545047D01*
X117046476Y-128211714D01*
X117094095Y-128021238D01*
X117189333Y-127926000D01*
X117284571Y-127878380D01*
X117475047Y-127878380D01*
X117570285Y-127926000D01*
X117665523Y-128021238D01*
X117713142Y-128211714D01*
X117713142Y-128545047D01*
X117665523Y-128735523D01*
X117570285Y-128830761D01*
X117475047Y-128878380D01*
X117284571Y-128878380D01*
X118665523Y-128878380D02*
X118094095Y-128878380D01*
X118379809Y-128878380D02*
X118379809Y-127878380D01*
X118284571Y-128021238D01*
X118189333Y-128116476D01*
X118094095Y-128164095D01*
%TO.C,LED2*%
X140358952Y-135707380D02*
X139882761Y-135707380D01*
X139882761Y-134707380D01*
X140692285Y-135183571D02*
X141025619Y-135183571D01*
X141168476Y-135707380D02*
X140692285Y-135707380D01*
X140692285Y-134707380D01*
X141168476Y-134707380D01*
X141597047Y-135707380D02*
X141597047Y-134707380D01*
X141835142Y-134707380D01*
X141978000Y-134755000D01*
X142073238Y-134850238D01*
X142120857Y-134945476D01*
X142168476Y-135135952D01*
X142168476Y-135278809D01*
X142120857Y-135469285D01*
X142073238Y-135564523D01*
X141978000Y-135659761D01*
X141835142Y-135707380D01*
X141597047Y-135707380D01*
X142549428Y-134802619D02*
X142597047Y-134755000D01*
X142692285Y-134707380D01*
X142930380Y-134707380D01*
X143025619Y-134755000D01*
X143073238Y-134802619D01*
X143120857Y-134897857D01*
X143120857Y-134993095D01*
X143073238Y-135135952D01*
X142501809Y-135707380D01*
X143120857Y-135707380D01*
%TO.C,LED1*%
X95908952Y-135834380D02*
X95432761Y-135834380D01*
X95432761Y-134834380D01*
X96242285Y-135310571D02*
X96575619Y-135310571D01*
X96718476Y-135834380D02*
X96242285Y-135834380D01*
X96242285Y-134834380D01*
X96718476Y-134834380D01*
X97147047Y-135834380D02*
X97147047Y-134834380D01*
X97385142Y-134834380D01*
X97528000Y-134882000D01*
X97623238Y-134977238D01*
X97670857Y-135072476D01*
X97718476Y-135262952D01*
X97718476Y-135405809D01*
X97670857Y-135596285D01*
X97623238Y-135691523D01*
X97528000Y-135786761D01*
X97385142Y-135834380D01*
X97147047Y-135834380D01*
X98670857Y-135834380D02*
X98099428Y-135834380D01*
X98385142Y-135834380D02*
X98385142Y-134834380D01*
X98289904Y-134977238D01*
X98194666Y-135072476D01*
X98099428Y-135120095D01*
%TO.C,J3*%
X91877380Y-120858333D02*
X92591666Y-120858333D01*
X92734523Y-120905952D01*
X92829761Y-121001190D01*
X92877380Y-121144047D01*
X92877380Y-121239285D01*
X91877380Y-120477380D02*
X91877380Y-119858333D01*
X92258333Y-120191666D01*
X92258333Y-120048809D01*
X92305952Y-119953571D01*
X92353571Y-119905952D01*
X92448809Y-119858333D01*
X92686904Y-119858333D01*
X92782142Y-119905952D01*
X92829761Y-119953571D01*
X92877380Y-120048809D01*
X92877380Y-120334523D01*
X92829761Y-120429761D01*
X92782142Y-120477380D01*
%TO.C,J2*%
X136191666Y-106132380D02*
X136191666Y-106846666D01*
X136144047Y-106989523D01*
X136048809Y-107084761D01*
X135905952Y-107132380D01*
X135810714Y-107132380D01*
X136620238Y-106227619D02*
X136667857Y-106180000D01*
X136763095Y-106132380D01*
X137001190Y-106132380D01*
X137096428Y-106180000D01*
X137144047Y-106227619D01*
X137191666Y-106322857D01*
X137191666Y-106418095D01*
X137144047Y-106560952D01*
X136572619Y-107132380D01*
X137191666Y-107132380D01*
%TO.C,J1*%
X130220666Y-104227380D02*
X130220666Y-104941666D01*
X130173047Y-105084523D01*
X130077809Y-105179761D01*
X129934952Y-105227380D01*
X129839714Y-105227380D01*
X131220666Y-105227380D02*
X130649238Y-105227380D01*
X130934952Y-105227380D02*
X130934952Y-104227380D01*
X130839714Y-104370238D01*
X130744476Y-104465476D01*
X130649238Y-104513095D01*
%TO.C,D22*%
X164520714Y-123642380D02*
X164520714Y-122642380D01*
X164758809Y-122642380D01*
X164901666Y-122690000D01*
X164996904Y-122785238D01*
X165044523Y-122880476D01*
X165092142Y-123070952D01*
X165092142Y-123213809D01*
X165044523Y-123404285D01*
X164996904Y-123499523D01*
X164901666Y-123594761D01*
X164758809Y-123642380D01*
X164520714Y-123642380D01*
X165473095Y-122737619D02*
X165520714Y-122690000D01*
X165615952Y-122642380D01*
X165854047Y-122642380D01*
X165949285Y-122690000D01*
X165996904Y-122737619D01*
X166044523Y-122832857D01*
X166044523Y-122928095D01*
X165996904Y-123070952D01*
X165425476Y-123642380D01*
X166044523Y-123642380D01*
X166425476Y-122737619D02*
X166473095Y-122690000D01*
X166568333Y-122642380D01*
X166806428Y-122642380D01*
X166901666Y-122690000D01*
X166949285Y-122737619D01*
X166996904Y-122832857D01*
X166996904Y-122928095D01*
X166949285Y-123070952D01*
X166377857Y-123642380D01*
X166996904Y-123642380D01*
%TO.C,D21*%
X167314714Y-119959380D02*
X167314714Y-118959380D01*
X167552809Y-118959380D01*
X167695666Y-119007000D01*
X167790904Y-119102238D01*
X167838523Y-119197476D01*
X167886142Y-119387952D01*
X167886142Y-119530809D01*
X167838523Y-119721285D01*
X167790904Y-119816523D01*
X167695666Y-119911761D01*
X167552809Y-119959380D01*
X167314714Y-119959380D01*
X168267095Y-119054619D02*
X168314714Y-119007000D01*
X168409952Y-118959380D01*
X168648047Y-118959380D01*
X168743285Y-119007000D01*
X168790904Y-119054619D01*
X168838523Y-119149857D01*
X168838523Y-119245095D01*
X168790904Y-119387952D01*
X168219476Y-119959380D01*
X168838523Y-119959380D01*
X169790904Y-119959380D02*
X169219476Y-119959380D01*
X169505190Y-119959380D02*
X169505190Y-118959380D01*
X169409952Y-119102238D01*
X169314714Y-119197476D01*
X169219476Y-119245095D01*
%TO.C,D19*%
X149915714Y-123642380D02*
X149915714Y-122642380D01*
X150153809Y-122642380D01*
X150296666Y-122690000D01*
X150391904Y-122785238D01*
X150439523Y-122880476D01*
X150487142Y-123070952D01*
X150487142Y-123213809D01*
X150439523Y-123404285D01*
X150391904Y-123499523D01*
X150296666Y-123594761D01*
X150153809Y-123642380D01*
X149915714Y-123642380D01*
X151439523Y-123642380D02*
X150868095Y-123642380D01*
X151153809Y-123642380D02*
X151153809Y-122642380D01*
X151058571Y-122785238D01*
X150963333Y-122880476D01*
X150868095Y-122928095D01*
X151915714Y-123642380D02*
X152106190Y-123642380D01*
X152201428Y-123594761D01*
X152249047Y-123547142D01*
X152344285Y-123404285D01*
X152391904Y-123213809D01*
X152391904Y-122832857D01*
X152344285Y-122737619D01*
X152296666Y-122690000D01*
X152201428Y-122642380D01*
X152010952Y-122642380D01*
X151915714Y-122690000D01*
X151868095Y-122737619D01*
X151820476Y-122832857D01*
X151820476Y-123070952D01*
X151868095Y-123166190D01*
X151915714Y-123213809D01*
X152010952Y-123261428D01*
X152201428Y-123261428D01*
X152296666Y-123213809D01*
X152344285Y-123166190D01*
X152391904Y-123070952D01*
%TO.C,D18*%
X170870714Y-119959380D02*
X170870714Y-118959380D01*
X171108809Y-118959380D01*
X171251666Y-119007000D01*
X171346904Y-119102238D01*
X171394523Y-119197476D01*
X171442142Y-119387952D01*
X171442142Y-119530809D01*
X171394523Y-119721285D01*
X171346904Y-119816523D01*
X171251666Y-119911761D01*
X171108809Y-119959380D01*
X170870714Y-119959380D01*
X172394523Y-119959380D02*
X171823095Y-119959380D01*
X172108809Y-119959380D02*
X172108809Y-118959380D01*
X172013571Y-119102238D01*
X171918333Y-119197476D01*
X171823095Y-119245095D01*
X172965952Y-119387952D02*
X172870714Y-119340333D01*
X172823095Y-119292714D01*
X172775476Y-119197476D01*
X172775476Y-119149857D01*
X172823095Y-119054619D01*
X172870714Y-119007000D01*
X172965952Y-118959380D01*
X173156428Y-118959380D01*
X173251666Y-119007000D01*
X173299285Y-119054619D01*
X173346904Y-119149857D01*
X173346904Y-119197476D01*
X173299285Y-119292714D01*
X173251666Y-119340333D01*
X173156428Y-119387952D01*
X172965952Y-119387952D01*
X172870714Y-119435571D01*
X172823095Y-119483190D01*
X172775476Y-119578428D01*
X172775476Y-119768904D01*
X172823095Y-119864142D01*
X172870714Y-119911761D01*
X172965952Y-119959380D01*
X173156428Y-119959380D01*
X173251666Y-119911761D01*
X173299285Y-119864142D01*
X173346904Y-119768904D01*
X173346904Y-119578428D01*
X173299285Y-119483190D01*
X173251666Y-119435571D01*
X173156428Y-119387952D01*
%TO.C,D17*%
X159694714Y-119959380D02*
X159694714Y-118959380D01*
X159932809Y-118959380D01*
X160075666Y-119007000D01*
X160170904Y-119102238D01*
X160218523Y-119197476D01*
X160266142Y-119387952D01*
X160266142Y-119530809D01*
X160218523Y-119721285D01*
X160170904Y-119816523D01*
X160075666Y-119911761D01*
X159932809Y-119959380D01*
X159694714Y-119959380D01*
X161218523Y-119959380D02*
X160647095Y-119959380D01*
X160932809Y-119959380D02*
X160932809Y-118959380D01*
X160837571Y-119102238D01*
X160742333Y-119197476D01*
X160647095Y-119245095D01*
X161551857Y-118959380D02*
X162218523Y-118959380D01*
X161789952Y-119959380D01*
%TO.C,D16*%
X156138714Y-119959380D02*
X156138714Y-118959380D01*
X156376809Y-118959380D01*
X156519666Y-119007000D01*
X156614904Y-119102238D01*
X156662523Y-119197476D01*
X156710142Y-119387952D01*
X156710142Y-119530809D01*
X156662523Y-119721285D01*
X156614904Y-119816523D01*
X156519666Y-119911761D01*
X156376809Y-119959380D01*
X156138714Y-119959380D01*
X157662523Y-119959380D02*
X157091095Y-119959380D01*
X157376809Y-119959380D02*
X157376809Y-118959380D01*
X157281571Y-119102238D01*
X157186333Y-119197476D01*
X157091095Y-119245095D01*
X158519666Y-118959380D02*
X158329190Y-118959380D01*
X158233952Y-119007000D01*
X158186333Y-119054619D01*
X158091095Y-119197476D01*
X158043476Y-119387952D01*
X158043476Y-119768904D01*
X158091095Y-119864142D01*
X158138714Y-119911761D01*
X158233952Y-119959380D01*
X158424428Y-119959380D01*
X158519666Y-119911761D01*
X158567285Y-119864142D01*
X158614904Y-119768904D01*
X158614904Y-119530809D01*
X158567285Y-119435571D01*
X158519666Y-119387952D01*
X158424428Y-119340333D01*
X158233952Y-119340333D01*
X158138714Y-119387952D01*
X158091095Y-119435571D01*
X158043476Y-119530809D01*
%TO.C,D15*%
X152582714Y-119959380D02*
X152582714Y-118959380D01*
X152820809Y-118959380D01*
X152963666Y-119007000D01*
X153058904Y-119102238D01*
X153106523Y-119197476D01*
X153154142Y-119387952D01*
X153154142Y-119530809D01*
X153106523Y-119721285D01*
X153058904Y-119816523D01*
X152963666Y-119911761D01*
X152820809Y-119959380D01*
X152582714Y-119959380D01*
X154106523Y-119959380D02*
X153535095Y-119959380D01*
X153820809Y-119959380D02*
X153820809Y-118959380D01*
X153725571Y-119102238D01*
X153630333Y-119197476D01*
X153535095Y-119245095D01*
X155011285Y-118959380D02*
X154535095Y-118959380D01*
X154487476Y-119435571D01*
X154535095Y-119387952D01*
X154630333Y-119340333D01*
X154868428Y-119340333D01*
X154963666Y-119387952D01*
X155011285Y-119435571D01*
X155058904Y-119530809D01*
X155058904Y-119768904D01*
X155011285Y-119864142D01*
X154963666Y-119911761D01*
X154868428Y-119959380D01*
X154630333Y-119959380D01*
X154535095Y-119911761D01*
X154487476Y-119864142D01*
%TO.C,D14*%
X163504714Y-119959380D02*
X163504714Y-118959380D01*
X163742809Y-118959380D01*
X163885666Y-119007000D01*
X163980904Y-119102238D01*
X164028523Y-119197476D01*
X164076142Y-119387952D01*
X164076142Y-119530809D01*
X164028523Y-119721285D01*
X163980904Y-119816523D01*
X163885666Y-119911761D01*
X163742809Y-119959380D01*
X163504714Y-119959380D01*
X165028523Y-119959380D02*
X164457095Y-119959380D01*
X164742809Y-119959380D02*
X164742809Y-118959380D01*
X164647571Y-119102238D01*
X164552333Y-119197476D01*
X164457095Y-119245095D01*
X165885666Y-119292714D02*
X165885666Y-119959380D01*
X165647571Y-118911761D02*
X165409476Y-119626047D01*
X166028523Y-119626047D01*
%TO.C,D13*%
X147502714Y-129230380D02*
X147502714Y-128230380D01*
X147740809Y-128230380D01*
X147883666Y-128278000D01*
X147978904Y-128373238D01*
X148026523Y-128468476D01*
X148074142Y-128658952D01*
X148074142Y-128801809D01*
X148026523Y-128992285D01*
X147978904Y-129087523D01*
X147883666Y-129182761D01*
X147740809Y-129230380D01*
X147502714Y-129230380D01*
X149026523Y-129230380D02*
X148455095Y-129230380D01*
X148740809Y-129230380D02*
X148740809Y-128230380D01*
X148645571Y-128373238D01*
X148550333Y-128468476D01*
X148455095Y-128516095D01*
X149359857Y-128230380D02*
X149978904Y-128230380D01*
X149645571Y-128611333D01*
X149788428Y-128611333D01*
X149883666Y-128658952D01*
X149931285Y-128706571D01*
X149978904Y-128801809D01*
X149978904Y-129039904D01*
X149931285Y-129135142D01*
X149883666Y-129182761D01*
X149788428Y-129230380D01*
X149502714Y-129230380D01*
X149407476Y-129182761D01*
X149359857Y-129135142D01*
%TO.C,D12*%
X167790714Y-135380380D02*
X167790714Y-134380380D01*
X168028809Y-134380380D01*
X168171666Y-134428000D01*
X168266904Y-134523238D01*
X168314523Y-134618476D01*
X168362142Y-134808952D01*
X168362142Y-134951809D01*
X168314523Y-135142285D01*
X168266904Y-135237523D01*
X168171666Y-135332761D01*
X168028809Y-135380380D01*
X167790714Y-135380380D01*
X169314523Y-135380380D02*
X168743095Y-135380380D01*
X169028809Y-135380380D02*
X169028809Y-134380380D01*
X168933571Y-134523238D01*
X168838333Y-134618476D01*
X168743095Y-134666095D01*
X169695476Y-134475619D02*
X169743095Y-134428000D01*
X169838333Y-134380380D01*
X170076428Y-134380380D01*
X170171666Y-134428000D01*
X170219285Y-134475619D01*
X170266904Y-134570857D01*
X170266904Y-134666095D01*
X170219285Y-134808952D01*
X169647857Y-135380380D01*
X170266904Y-135380380D01*
%TO.C,D11*%
X120070714Y-124977380D02*
X120070714Y-123977380D01*
X120308809Y-123977380D01*
X120451666Y-124025000D01*
X120546904Y-124120238D01*
X120594523Y-124215476D01*
X120642142Y-124405952D01*
X120642142Y-124548809D01*
X120594523Y-124739285D01*
X120546904Y-124834523D01*
X120451666Y-124929761D01*
X120308809Y-124977380D01*
X120070714Y-124977380D01*
X121594523Y-124977380D02*
X121023095Y-124977380D01*
X121308809Y-124977380D02*
X121308809Y-123977380D01*
X121213571Y-124120238D01*
X121118333Y-124215476D01*
X121023095Y-124263095D01*
X122546904Y-124977380D02*
X121975476Y-124977380D01*
X122261190Y-124977380D02*
X122261190Y-123977380D01*
X122165952Y-124120238D01*
X122070714Y-124215476D01*
X121975476Y-124263095D01*
%TO.C,D10*%
X122737714Y-120086380D02*
X122737714Y-119086380D01*
X122975809Y-119086380D01*
X123118666Y-119134000D01*
X123213904Y-119229238D01*
X123261523Y-119324476D01*
X123309142Y-119514952D01*
X123309142Y-119657809D01*
X123261523Y-119848285D01*
X123213904Y-119943523D01*
X123118666Y-120038761D01*
X122975809Y-120086380D01*
X122737714Y-120086380D01*
X124261523Y-120086380D02*
X123690095Y-120086380D01*
X123975809Y-120086380D02*
X123975809Y-119086380D01*
X123880571Y-119229238D01*
X123785333Y-119324476D01*
X123690095Y-119372095D01*
X124880571Y-119086380D02*
X124975809Y-119086380D01*
X125071047Y-119134000D01*
X125118666Y-119181619D01*
X125166285Y-119276857D01*
X125213904Y-119467333D01*
X125213904Y-119705428D01*
X125166285Y-119895904D01*
X125118666Y-119991142D01*
X125071047Y-120038761D01*
X124975809Y-120086380D01*
X124880571Y-120086380D01*
X124785333Y-120038761D01*
X124737714Y-119991142D01*
X124690095Y-119895904D01*
X124642476Y-119705428D01*
X124642476Y-119467333D01*
X124690095Y-119276857D01*
X124737714Y-119181619D01*
X124785333Y-119134000D01*
X124880571Y-119086380D01*
%TO.C,D8*%
X105941904Y-123515380D02*
X105941904Y-122515380D01*
X106180000Y-122515380D01*
X106322857Y-122563000D01*
X106418095Y-122658238D01*
X106465714Y-122753476D01*
X106513333Y-122943952D01*
X106513333Y-123086809D01*
X106465714Y-123277285D01*
X106418095Y-123372523D01*
X106322857Y-123467761D01*
X106180000Y-123515380D01*
X105941904Y-123515380D01*
X107084761Y-122943952D02*
X106989523Y-122896333D01*
X106941904Y-122848714D01*
X106894285Y-122753476D01*
X106894285Y-122705857D01*
X106941904Y-122610619D01*
X106989523Y-122563000D01*
X107084761Y-122515380D01*
X107275238Y-122515380D01*
X107370476Y-122563000D01*
X107418095Y-122610619D01*
X107465714Y-122705857D01*
X107465714Y-122753476D01*
X107418095Y-122848714D01*
X107370476Y-122896333D01*
X107275238Y-122943952D01*
X107084761Y-122943952D01*
X106989523Y-122991571D01*
X106941904Y-123039190D01*
X106894285Y-123134428D01*
X106894285Y-123324904D01*
X106941904Y-123420142D01*
X106989523Y-123467761D01*
X107084761Y-123515380D01*
X107275238Y-123515380D01*
X107370476Y-123467761D01*
X107418095Y-123420142D01*
X107465714Y-123324904D01*
X107465714Y-123134428D01*
X107418095Y-123039190D01*
X107370476Y-122991571D01*
X107275238Y-122943952D01*
%TO.C,D7*%
X127023904Y-120086380D02*
X127023904Y-119086380D01*
X127262000Y-119086380D01*
X127404857Y-119134000D01*
X127500095Y-119229238D01*
X127547714Y-119324476D01*
X127595333Y-119514952D01*
X127595333Y-119657809D01*
X127547714Y-119848285D01*
X127500095Y-119943523D01*
X127404857Y-120038761D01*
X127262000Y-120086380D01*
X127023904Y-120086380D01*
X127928666Y-119086380D02*
X128595333Y-119086380D01*
X128166761Y-120086380D01*
%TO.C,D6*%
X115847904Y-119959380D02*
X115847904Y-118959380D01*
X116086000Y-118959380D01*
X116228857Y-119007000D01*
X116324095Y-119102238D01*
X116371714Y-119197476D01*
X116419333Y-119387952D01*
X116419333Y-119530809D01*
X116371714Y-119721285D01*
X116324095Y-119816523D01*
X116228857Y-119911761D01*
X116086000Y-119959380D01*
X115847904Y-119959380D01*
X117276476Y-118959380D02*
X117086000Y-118959380D01*
X116990761Y-119007000D01*
X116943142Y-119054619D01*
X116847904Y-119197476D01*
X116800285Y-119387952D01*
X116800285Y-119768904D01*
X116847904Y-119864142D01*
X116895523Y-119911761D01*
X116990761Y-119959380D01*
X117181238Y-119959380D01*
X117276476Y-119911761D01*
X117324095Y-119864142D01*
X117371714Y-119768904D01*
X117371714Y-119530809D01*
X117324095Y-119435571D01*
X117276476Y-119387952D01*
X117181238Y-119340333D01*
X116990761Y-119340333D01*
X116895523Y-119387952D01*
X116847904Y-119435571D01*
X116800285Y-119530809D01*
%TO.C,D5*%
X112164904Y-119959380D02*
X112164904Y-118959380D01*
X112403000Y-118959380D01*
X112545857Y-119007000D01*
X112641095Y-119102238D01*
X112688714Y-119197476D01*
X112736333Y-119387952D01*
X112736333Y-119530809D01*
X112688714Y-119721285D01*
X112641095Y-119816523D01*
X112545857Y-119911761D01*
X112403000Y-119959380D01*
X112164904Y-119959380D01*
X113641095Y-118959380D02*
X113164904Y-118959380D01*
X113117285Y-119435571D01*
X113164904Y-119387952D01*
X113260142Y-119340333D01*
X113498238Y-119340333D01*
X113593476Y-119387952D01*
X113641095Y-119435571D01*
X113688714Y-119530809D01*
X113688714Y-119768904D01*
X113641095Y-119864142D01*
X113593476Y-119911761D01*
X113498238Y-119959380D01*
X113260142Y-119959380D01*
X113164904Y-119911761D01*
X113117285Y-119864142D01*
%TO.C,D4*%
X108608904Y-120086380D02*
X108608904Y-119086380D01*
X108847000Y-119086380D01*
X108989857Y-119134000D01*
X109085095Y-119229238D01*
X109132714Y-119324476D01*
X109180333Y-119514952D01*
X109180333Y-119657809D01*
X109132714Y-119848285D01*
X109085095Y-119943523D01*
X108989857Y-120038761D01*
X108847000Y-120086380D01*
X108608904Y-120086380D01*
X110037476Y-119419714D02*
X110037476Y-120086380D01*
X109799380Y-119038761D02*
X109561285Y-119753047D01*
X110180333Y-119753047D01*
%TO.C,D3*%
X119657904Y-120086380D02*
X119657904Y-119086380D01*
X119896000Y-119086380D01*
X120038857Y-119134000D01*
X120134095Y-119229238D01*
X120181714Y-119324476D01*
X120229333Y-119514952D01*
X120229333Y-119657809D01*
X120181714Y-119848285D01*
X120134095Y-119943523D01*
X120038857Y-120038761D01*
X119896000Y-120086380D01*
X119657904Y-120086380D01*
X120562666Y-119086380D02*
X121181714Y-119086380D01*
X120848380Y-119467333D01*
X120991238Y-119467333D01*
X121086476Y-119514952D01*
X121134095Y-119562571D01*
X121181714Y-119657809D01*
X121181714Y-119895904D01*
X121134095Y-119991142D01*
X121086476Y-120038761D01*
X120991238Y-120086380D01*
X120705523Y-120086380D01*
X120610285Y-120038761D01*
X120562666Y-119991142D01*
%TO.C,D2*%
X102893904Y-129357380D02*
X102893904Y-128357380D01*
X103132000Y-128357380D01*
X103274857Y-128405000D01*
X103370095Y-128500238D01*
X103417714Y-128595476D01*
X103465333Y-128785952D01*
X103465333Y-128928809D01*
X103417714Y-129119285D01*
X103370095Y-129214523D01*
X103274857Y-129309761D01*
X103132000Y-129357380D01*
X102893904Y-129357380D01*
X103846285Y-128452619D02*
X103893904Y-128405000D01*
X103989142Y-128357380D01*
X104227238Y-128357380D01*
X104322476Y-128405000D01*
X104370095Y-128452619D01*
X104417714Y-128547857D01*
X104417714Y-128643095D01*
X104370095Y-128785952D01*
X103798666Y-129357380D01*
X104417714Y-129357380D01*
%TO.C,D1*%
X123213904Y-135453380D02*
X123213904Y-134453380D01*
X123452000Y-134453380D01*
X123594857Y-134501000D01*
X123690095Y-134596238D01*
X123737714Y-134691476D01*
X123785333Y-134881952D01*
X123785333Y-135024809D01*
X123737714Y-135215285D01*
X123690095Y-135310523D01*
X123594857Y-135405761D01*
X123452000Y-135453380D01*
X123213904Y-135453380D01*
X124737714Y-135453380D02*
X124166285Y-135453380D01*
X124452000Y-135453380D02*
X124452000Y-134453380D01*
X124356761Y-134596238D01*
X124261523Y-134691476D01*
X124166285Y-134739095D01*
D11*
%TO.C,R10*%
X155982936Y-135536000D02*
X156437064Y-135536000D01*
X155982936Y-134066000D02*
X156437064Y-134066000D01*
%TO.C,R9*%
X156437064Y-132034000D02*
X155982936Y-132034000D01*
X156437064Y-133504000D02*
X155982936Y-133504000D01*
%TO.C,R8*%
X155982936Y-131472000D02*
X156437064Y-131472000D01*
X155982936Y-130002000D02*
X156437064Y-130002000D01*
%TO.C,R7*%
X156437064Y-127970000D02*
X155982936Y-127970000D01*
X156437064Y-129440000D02*
X155982936Y-129440000D01*
%TO.C,R6*%
X146658064Y-132488000D02*
X146203936Y-132488000D01*
X146658064Y-133958000D02*
X146203936Y-133958000D01*
%TO.C,R5*%
X111532936Y-135736000D02*
X111987064Y-135736000D01*
X111532936Y-134266000D02*
X111987064Y-134266000D01*
%TO.C,R4*%
X111987064Y-132234000D02*
X111532936Y-132234000D01*
X111987064Y-133704000D02*
X111532936Y-133704000D01*
%TO.C,R3*%
X111532936Y-131672000D02*
X111987064Y-131672000D01*
X111532936Y-130202000D02*
X111987064Y-130202000D01*
%TO.C,R2*%
X111987064Y-128170000D02*
X111532936Y-128170000D01*
X111987064Y-129640000D02*
X111532936Y-129640000D01*
%TO.C,R1*%
X102335064Y-132615000D02*
X101880936Y-132615000D01*
X102335064Y-134085000D02*
X101880936Y-134085000D01*
%TO.C,Q2*%
X162560000Y-129193000D02*
X159110000Y-129193000D01*
X162560000Y-129193000D02*
X164510000Y-129193000D01*
X162560000Y-134313000D02*
X160610000Y-134313000D01*
X162560000Y-134313000D02*
X164510000Y-134313000D01*
%TO.C,Q1*%
X117856000Y-129266000D02*
X114406000Y-129266000D01*
X117856000Y-129266000D02*
X119806000Y-129266000D01*
X117856000Y-134386000D02*
X115906000Y-134386000D01*
X117856000Y-134386000D02*
X119806000Y-134386000D01*
%TO.C,LED2*%
X139145000Y-134358000D02*
X143205000Y-134358000D01*
X139145000Y-132088000D02*
X139145000Y-134358000D01*
X143205000Y-132088000D02*
X139145000Y-132088000D01*
%TO.C,LED1*%
X94822000Y-134485000D02*
X98882000Y-134485000D01*
X94822000Y-132215000D02*
X94822000Y-134485000D01*
X98882000Y-132215000D02*
X94822000Y-132215000D01*
%TO.C,J3*%
X83465000Y-102725000D02*
X83465000Y-103125000D01*
X84105000Y-102725000D02*
X83465000Y-102725000D01*
X87324000Y-135130000D02*
X87196000Y-135001000D01*
X89540000Y-137345000D02*
X89446000Y-137251000D01*
X87084000Y-135300000D02*
X86991000Y-135206000D01*
X89334000Y-137550000D02*
X89206000Y-137421000D01*
X87324000Y-131630000D02*
X87196000Y-131501000D01*
X89540000Y-133845000D02*
X89446000Y-133751000D01*
X87084000Y-131800000D02*
X86991000Y-131706000D01*
X89334000Y-134050000D02*
X89206000Y-133921000D01*
X87324000Y-128130000D02*
X87196000Y-128001000D01*
X89540000Y-130345000D02*
X89446000Y-130251000D01*
X87084000Y-128300000D02*
X86991000Y-128206000D01*
X89334000Y-130550000D02*
X89206000Y-130421000D01*
X87324000Y-124630000D02*
X87196000Y-124501000D01*
X89540000Y-126845000D02*
X89446000Y-126751000D01*
X87084000Y-124800000D02*
X86991000Y-124706000D01*
X89334000Y-127050000D02*
X89206000Y-126921000D01*
X87324000Y-121130000D02*
X87196000Y-121001000D01*
X89540000Y-123345000D02*
X89446000Y-123251000D01*
X87084000Y-121300000D02*
X86991000Y-121206000D01*
X89334000Y-123550000D02*
X89206000Y-123421000D01*
X87324000Y-117630000D02*
X87196000Y-117501000D01*
X89540000Y-119845000D02*
X89446000Y-119751000D01*
X87084000Y-117800000D02*
X86991000Y-117706000D01*
X89334000Y-120050000D02*
X89206000Y-119921000D01*
X87324000Y-114130000D02*
X87196000Y-114001000D01*
X89540000Y-116345000D02*
X89446000Y-116251000D01*
X87084000Y-114300000D02*
X86991000Y-114206000D01*
X89334000Y-116550000D02*
X89206000Y-116421000D01*
X87324000Y-110630000D02*
X87196000Y-110501000D01*
X89540000Y-112845000D02*
X89446000Y-112751000D01*
X87084000Y-110800000D02*
X86991000Y-110706000D01*
X89334000Y-113050000D02*
X89206000Y-112921000D01*
X87324000Y-107130000D02*
X87196000Y-107001000D01*
X89540000Y-109345000D02*
X89446000Y-109251000D01*
X87084000Y-107300000D02*
X86991000Y-107206000D01*
X89334000Y-109550000D02*
X89206000Y-109421000D01*
X91425000Y-138085000D02*
X83705000Y-138085000D01*
X91425000Y-102965000D02*
X83705000Y-102965000D01*
X83705000Y-102965000D02*
X83705000Y-138085000D01*
X91425000Y-102965000D02*
X91425000Y-138085000D01*
X85265000Y-102965000D02*
X85265000Y-138085000D01*
X84165000Y-102965000D02*
X84165000Y-138085000D01*
X89945000Y-136275000D02*
G75*
G03*
X89945000Y-136275000I-1680000J0D01*
G01*
X89945000Y-132775000D02*
G75*
G03*
X89945000Y-132775000I-1680000J0D01*
G01*
X89945000Y-129275000D02*
G75*
G03*
X89945000Y-129275000I-1680000J0D01*
G01*
X89945000Y-125775000D02*
G75*
G03*
X89945000Y-125775000I-1680000J0D01*
G01*
X89945000Y-122275000D02*
G75*
G03*
X89945000Y-122275000I-1680000J0D01*
G01*
X89945000Y-118775000D02*
G75*
G03*
X89945000Y-118775000I-1680000J0D01*
G01*
X89945000Y-115275000D02*
G75*
G03*
X89945000Y-115275000I-1680000J0D01*
G01*
X89945000Y-111775000D02*
G75*
G03*
X89945000Y-111775000I-1680000J0D01*
G01*
X89945000Y-108275000D02*
G75*
G03*
X89945000Y-108275000I-1680000J0D01*
G01*
X86584901Y-104803674D02*
G75*
G02*
X86825000Y-103909000I1680099J28674D01*
G01*
X87375106Y-103349642D02*
G75*
G02*
X89131000Y-103335000I889894J-1425358D01*
G01*
X89690358Y-103885106D02*
G75*
G02*
X89705000Y-105641000I-1425358J-889894D01*
G01*
X89155193Y-106200505D02*
G75*
G02*
X87374000Y-106200000I-890193J1425505D01*
G01*
X86840279Y-105665264D02*
G75*
G02*
X86585000Y-104775000I1424721J890264D01*
G01*
%TO.C,J2*%
X174010000Y-102896000D02*
X173610000Y-102896000D01*
X174010000Y-103536000D02*
X174010000Y-102896000D01*
X141605000Y-106755000D02*
X141734000Y-106627000D01*
X139390000Y-108971000D02*
X139484000Y-108877000D01*
X141435000Y-106515000D02*
X141529000Y-106422000D01*
X139185000Y-108765000D02*
X139314000Y-108637000D01*
X145105000Y-106755000D02*
X145234000Y-106627000D01*
X142890000Y-108971000D02*
X142984000Y-108877000D01*
X144935000Y-106515000D02*
X145029000Y-106422000D01*
X142685000Y-108765000D02*
X142814000Y-108637000D01*
X148605000Y-106755000D02*
X148734000Y-106627000D01*
X146390000Y-108971000D02*
X146484000Y-108877000D01*
X148435000Y-106515000D02*
X148529000Y-106422000D01*
X146185000Y-108765000D02*
X146314000Y-108637000D01*
X152105000Y-106755000D02*
X152234000Y-106627000D01*
X149890000Y-108971000D02*
X149984000Y-108877000D01*
X151935000Y-106515000D02*
X152029000Y-106422000D01*
X149685000Y-108765000D02*
X149814000Y-108637000D01*
X155605000Y-106755000D02*
X155734000Y-106627000D01*
X153390000Y-108971000D02*
X153484000Y-108877000D01*
X155435000Y-106515000D02*
X155529000Y-106422000D01*
X153185000Y-108765000D02*
X153314000Y-108637000D01*
X159105000Y-106755000D02*
X159234000Y-106627000D01*
X156890000Y-108971000D02*
X156984000Y-108877000D01*
X158935000Y-106515000D02*
X159029000Y-106422000D01*
X156685000Y-108765000D02*
X156814000Y-108637000D01*
X162605000Y-106755000D02*
X162734000Y-106627000D01*
X160390000Y-108971000D02*
X160484000Y-108877000D01*
X162435000Y-106515000D02*
X162529000Y-106422000D01*
X160185000Y-108765000D02*
X160314000Y-108637000D01*
X166105000Y-106755000D02*
X166234000Y-106627000D01*
X163890000Y-108971000D02*
X163984000Y-108877000D01*
X165935000Y-106515000D02*
X166029000Y-106422000D01*
X163685000Y-108765000D02*
X163814000Y-108637000D01*
X169605000Y-106755000D02*
X169734000Y-106627000D01*
X167390000Y-108971000D02*
X167484000Y-108877000D01*
X169435000Y-106515000D02*
X169529000Y-106422000D01*
X167185000Y-108765000D02*
X167314000Y-108637000D01*
X138650000Y-110856000D02*
X138650000Y-103136000D01*
X173770000Y-110856000D02*
X173770000Y-103136000D01*
X173770000Y-103136000D02*
X138650000Y-103136000D01*
X173770000Y-110856000D02*
X138650000Y-110856000D01*
X173770000Y-104696000D02*
X138650000Y-104696000D01*
X173770000Y-103596000D02*
X138650000Y-103596000D01*
X142140000Y-107696000D02*
G75*
G03*
X142140000Y-107696000I-1680000J0D01*
G01*
X145640000Y-107696000D02*
G75*
G03*
X145640000Y-107696000I-1680000J0D01*
G01*
X149140000Y-107696000D02*
G75*
G03*
X149140000Y-107696000I-1680000J0D01*
G01*
X152640000Y-107696000D02*
G75*
G03*
X152640000Y-107696000I-1680000J0D01*
G01*
X156140000Y-107696000D02*
G75*
G03*
X156140000Y-107696000I-1680000J0D01*
G01*
X159640000Y-107696000D02*
G75*
G03*
X159640000Y-107696000I-1680000J0D01*
G01*
X163140000Y-107696000D02*
G75*
G03*
X163140000Y-107696000I-1680000J0D01*
G01*
X166640000Y-107696000D02*
G75*
G03*
X166640000Y-107696000I-1680000J0D01*
G01*
X170140000Y-107696000D02*
G75*
G03*
X170140000Y-107696000I-1680000J0D01*
G01*
X171931326Y-106015901D02*
G75*
G02*
X172826000Y-106256000I28674J-1680099D01*
G01*
X173385358Y-106806106D02*
G75*
G02*
X173400000Y-108562000I-1425358J-889894D01*
G01*
X172849894Y-109121358D02*
G75*
G02*
X171094000Y-109136000I-889894J1425358D01*
G01*
X170534495Y-108586193D02*
G75*
G02*
X170535000Y-106805000I1425505J890193D01*
G01*
X171069736Y-106271279D02*
G75*
G02*
X171960000Y-106016000I890264J-1424721D01*
G01*
%TO.C,J1*%
X129560000Y-103023000D02*
X129160000Y-103023000D01*
X129560000Y-103663000D02*
X129560000Y-103023000D01*
X97155000Y-106882000D02*
X97284000Y-106754000D01*
X94940000Y-109098000D02*
X95034000Y-109004000D01*
X96985000Y-106642000D02*
X97079000Y-106549000D01*
X94735000Y-108892000D02*
X94864000Y-108764000D01*
X100655000Y-106882000D02*
X100784000Y-106754000D01*
X98440000Y-109098000D02*
X98534000Y-109004000D01*
X100485000Y-106642000D02*
X100579000Y-106549000D01*
X98235000Y-108892000D02*
X98364000Y-108764000D01*
X104155000Y-106882000D02*
X104284000Y-106754000D01*
X101940000Y-109098000D02*
X102034000Y-109004000D01*
X103985000Y-106642000D02*
X104079000Y-106549000D01*
X101735000Y-108892000D02*
X101864000Y-108764000D01*
X107655000Y-106882000D02*
X107784000Y-106754000D01*
X105440000Y-109098000D02*
X105534000Y-109004000D01*
X107485000Y-106642000D02*
X107579000Y-106549000D01*
X105235000Y-108892000D02*
X105364000Y-108764000D01*
X111155000Y-106882000D02*
X111284000Y-106754000D01*
X108940000Y-109098000D02*
X109034000Y-109004000D01*
X110985000Y-106642000D02*
X111079000Y-106549000D01*
X108735000Y-108892000D02*
X108864000Y-108764000D01*
X114655000Y-106882000D02*
X114784000Y-106754000D01*
X112440000Y-109098000D02*
X112534000Y-109004000D01*
X114485000Y-106642000D02*
X114579000Y-106549000D01*
X112235000Y-108892000D02*
X112364000Y-108764000D01*
X118155000Y-106882000D02*
X118284000Y-106754000D01*
X115940000Y-109098000D02*
X116034000Y-109004000D01*
X117985000Y-106642000D02*
X118079000Y-106549000D01*
X115735000Y-108892000D02*
X115864000Y-108764000D01*
X121655000Y-106882000D02*
X121784000Y-106754000D01*
X119440000Y-109098000D02*
X119534000Y-109004000D01*
X121485000Y-106642000D02*
X121579000Y-106549000D01*
X119235000Y-108892000D02*
X119364000Y-108764000D01*
X125155000Y-106882000D02*
X125284000Y-106754000D01*
X122940000Y-109098000D02*
X123034000Y-109004000D01*
X124985000Y-106642000D02*
X125079000Y-106549000D01*
X122735000Y-108892000D02*
X122864000Y-108764000D01*
X94200000Y-110983000D02*
X94200000Y-103263000D01*
X129320000Y-110983000D02*
X129320000Y-103263000D01*
X129320000Y-103263000D02*
X94200000Y-103263000D01*
X129320000Y-110983000D02*
X94200000Y-110983000D01*
X129320000Y-104823000D02*
X94200000Y-104823000D01*
X129320000Y-103723000D02*
X94200000Y-103723000D01*
X97690000Y-107823000D02*
G75*
G03*
X97690000Y-107823000I-1680000J0D01*
G01*
X101190000Y-107823000D02*
G75*
G03*
X101190000Y-107823000I-1680000J0D01*
G01*
X104690000Y-107823000D02*
G75*
G03*
X104690000Y-107823000I-1680000J0D01*
G01*
X108190000Y-107823000D02*
G75*
G03*
X108190000Y-107823000I-1680000J0D01*
G01*
X111690000Y-107823000D02*
G75*
G03*
X111690000Y-107823000I-1680000J0D01*
G01*
X115190000Y-107823000D02*
G75*
G03*
X115190000Y-107823000I-1680000J0D01*
G01*
X118690000Y-107823000D02*
G75*
G03*
X118690000Y-107823000I-1680000J0D01*
G01*
X122190000Y-107823000D02*
G75*
G03*
X122190000Y-107823000I-1680000J0D01*
G01*
X125690000Y-107823000D02*
G75*
G03*
X125690000Y-107823000I-1680000J0D01*
G01*
X127481326Y-106142901D02*
G75*
G02*
X128376000Y-106383000I28674J-1680099D01*
G01*
X128935358Y-106933106D02*
G75*
G02*
X128950000Y-108689000I-1425358J-889894D01*
G01*
X128399894Y-109248358D02*
G75*
G02*
X126644000Y-109263000I-889894J1425358D01*
G01*
X126084495Y-108713193D02*
G75*
G02*
X126085000Y-106932000I1425505J890193D01*
G01*
X126619736Y-106398279D02*
G75*
G02*
X127510000Y-106143000I890264J-1424721D01*
G01*
%TO.C,D22*%
X160275000Y-127225000D02*
X160275000Y-121825000D01*
X163575000Y-127225000D02*
X163575000Y-121825000D01*
X160275000Y-127225000D02*
X163575000Y-127225000D01*
%TO.C,D21*%
X166752000Y-118462000D02*
X166752000Y-113062000D01*
X170052000Y-118462000D02*
X170052000Y-113062000D01*
X166752000Y-118462000D02*
X170052000Y-118462000D01*
%TO.C,D20*%
X156592000Y-127225000D02*
X156592000Y-121825000D01*
X159892000Y-127225000D02*
X159892000Y-121825000D01*
X156592000Y-127225000D02*
X159892000Y-127225000D01*
%TO.C,D19*%
X152909000Y-127225000D02*
X152909000Y-121825000D01*
X156209000Y-127225000D02*
X156209000Y-121825000D01*
X152909000Y-127225000D02*
X156209000Y-127225000D01*
%TO.C,D18*%
X173735000Y-111662000D02*
X173735000Y-117062000D01*
X170435000Y-111662000D02*
X170435000Y-117062000D01*
X173735000Y-111662000D02*
X170435000Y-111662000D01*
%TO.C,D17*%
X162686000Y-111662000D02*
X162686000Y-117062000D01*
X159386000Y-111662000D02*
X159386000Y-117062000D01*
X162686000Y-111662000D02*
X159386000Y-111662000D01*
%TO.C,D16*%
X159003000Y-111662000D02*
X159003000Y-117062000D01*
X155703000Y-111662000D02*
X155703000Y-117062000D01*
X159003000Y-111662000D02*
X155703000Y-111662000D01*
%TO.C,D15*%
X155320000Y-111662000D02*
X155320000Y-117062000D01*
X152020000Y-111662000D02*
X152020000Y-117062000D01*
X155320000Y-111662000D02*
X152020000Y-111662000D01*
%TO.C,D14*%
X163069000Y-118462000D02*
X163069000Y-113062000D01*
X166369000Y-118462000D02*
X166369000Y-113062000D01*
X163069000Y-118462000D02*
X166369000Y-118462000D01*
%TO.C,D13*%
X146910000Y-131571000D02*
X141510000Y-131571000D01*
X146910000Y-128271000D02*
X141510000Y-128271000D01*
X146910000Y-131571000D02*
X146910000Y-128271000D01*
%TO.C,D12*%
X167260000Y-133883000D02*
X167260000Y-128483000D01*
X170560000Y-133883000D02*
X170560000Y-128483000D01*
X167260000Y-133883000D02*
X170560000Y-133883000D01*
%TO.C,D11*%
X115825000Y-127225000D02*
X115825000Y-121825000D01*
X119125000Y-127225000D02*
X119125000Y-121825000D01*
X115825000Y-127225000D02*
X119125000Y-127225000D01*
%TO.C,D10*%
X122302000Y-118557000D02*
X122302000Y-113157000D01*
X125602000Y-118557000D02*
X125602000Y-113157000D01*
X122302000Y-118557000D02*
X125602000Y-118557000D01*
%TO.C,D9*%
X112142000Y-127225000D02*
X112142000Y-121825000D01*
X115442000Y-127225000D02*
X115442000Y-121825000D01*
X112142000Y-127225000D02*
X115442000Y-127225000D01*
%TO.C,D8*%
X108459000Y-127225000D02*
X108459000Y-121825000D01*
X111759000Y-127225000D02*
X111759000Y-121825000D01*
X108459000Y-127225000D02*
X111759000Y-127225000D01*
%TO.C,D7*%
X129285000Y-111757000D02*
X129285000Y-117157000D01*
X125985000Y-111757000D02*
X125985000Y-117157000D01*
X129285000Y-111757000D02*
X125985000Y-111757000D01*
%TO.C,D6*%
X118236000Y-111757000D02*
X118236000Y-117157000D01*
X114936000Y-111757000D02*
X114936000Y-117157000D01*
X118236000Y-111757000D02*
X114936000Y-111757000D01*
%TO.C,D5*%
X114553000Y-111757000D02*
X114553000Y-117157000D01*
X111253000Y-111757000D02*
X111253000Y-117157000D01*
X114553000Y-111757000D02*
X111253000Y-111757000D01*
%TO.C,D4*%
X110870000Y-111789000D02*
X110870000Y-117189000D01*
X107570000Y-111789000D02*
X107570000Y-117189000D01*
X110870000Y-111789000D02*
X107570000Y-111789000D01*
%TO.C,D3*%
X118619000Y-118557000D02*
X118619000Y-113157000D01*
X121919000Y-118557000D02*
X121919000Y-113157000D01*
X118619000Y-118557000D02*
X121919000Y-118557000D01*
%TO.C,D2*%
X102460000Y-131698000D02*
X97060000Y-131698000D01*
X102460000Y-128398000D02*
X97060000Y-128398000D01*
X102460000Y-131698000D02*
X102460000Y-128398000D01*
%TO.C,D1*%
X122302000Y-133829000D02*
X122302000Y-128429000D01*
X125602000Y-133829000D02*
X125602000Y-128429000D01*
X122302000Y-133829000D02*
X125602000Y-133829000D01*
%TD*%
%LPC*%
D12*
%TO.C,RLY2*%
X150233000Y-132116000D03*
X137033000Y-132116000D03*
X150233000Y-125716000D03*
X145833000Y-125716000D03*
X141633000Y-125716000D03*
X137033000Y-125716000D03*
X150233000Y-119516000D03*
X145833000Y-119516000D03*
X141433000Y-119516000D03*
X137033000Y-119516000D03*
X150233000Y-115316000D03*
X145833000Y-115316000D03*
X141433000Y-115316000D03*
X137033000Y-115316000D03*
%TD*%
%TO.C,RLY1*%
X105783000Y-132116000D03*
X92583000Y-132116000D03*
X105783000Y-125716000D03*
X101383000Y-125716000D03*
X97183000Y-125716000D03*
X92583000Y-125716000D03*
X105783000Y-119516000D03*
X101383000Y-119516000D03*
X96983000Y-119516000D03*
X92583000Y-119516000D03*
X105783000Y-115316000D03*
X101383000Y-115316000D03*
X96983000Y-115316000D03*
X92583000Y-115316000D03*
%TD*%
D13*
%TO.C,R10*%
X157210000Y-134801000D03*
X155210000Y-134801000D03*
%TD*%
D14*
%TO.C,R9*%
X155210000Y-132769000D03*
X157210000Y-132769000D03*
%TD*%
D13*
%TO.C,R8*%
X157210000Y-130737000D03*
X155210000Y-130737000D03*
%TD*%
D14*
%TO.C,R7*%
X155210000Y-128705000D03*
X157210000Y-128705000D03*
%TD*%
%TO.C,R6*%
X145431000Y-133223000D03*
X147431000Y-133223000D03*
%TD*%
D13*
%TO.C,R5*%
X112760000Y-135001000D03*
X110760000Y-135001000D03*
%TD*%
D14*
%TO.C,R4*%
X110760000Y-132969000D03*
X112760000Y-132969000D03*
%TD*%
D13*
%TO.C,R3*%
X112760000Y-130937000D03*
X110760000Y-130937000D03*
%TD*%
D14*
%TO.C,R2*%
X110760000Y-128905000D03*
X112760000Y-128905000D03*
%TD*%
%TO.C,R1*%
X101108000Y-133350000D03*
X103108000Y-133350000D03*
%TD*%
D15*
%TO.C,Q2*%
X165035000Y-129848000D03*
X165035000Y-131118000D03*
X165035000Y-132388000D03*
X165035000Y-133658000D03*
X160085000Y-133658000D03*
X160085000Y-132388000D03*
X160085000Y-131118000D03*
X160085000Y-129848000D03*
%TD*%
%TO.C,Q1*%
X120331000Y-129921000D03*
X120331000Y-131191000D03*
X120331000Y-132461000D03*
X120331000Y-133731000D03*
X115381000Y-133731000D03*
X115381000Y-132461000D03*
X115381000Y-131191000D03*
X115381000Y-129921000D03*
%TD*%
D16*
%TO.C,LED2*%
X143092500Y-133223000D03*
X140117500Y-133223000D03*
%TD*%
%TO.C,LED1*%
X98769500Y-133350000D03*
X95794500Y-133350000D03*
%TD*%
D17*
%TO.C,J3*%
X88265000Y-136275000D03*
X88265000Y-132775000D03*
X88265000Y-129275000D03*
X88265000Y-125775000D03*
X88265000Y-122275000D03*
X88265000Y-118775000D03*
X88265000Y-115275000D03*
X88265000Y-111775000D03*
X88265000Y-108275000D03*
D18*
X88265000Y-104775000D03*
%TD*%
D17*
%TO.C,J2*%
X140460000Y-107696000D03*
X143960000Y-107696000D03*
X147460000Y-107696000D03*
X150960000Y-107696000D03*
X154460000Y-107696000D03*
X157960000Y-107696000D03*
X161460000Y-107696000D03*
X164960000Y-107696000D03*
X168460000Y-107696000D03*
D18*
X171960000Y-107696000D03*
%TD*%
D17*
%TO.C,J1*%
X96010000Y-107823000D03*
X99510000Y-107823000D03*
X103010000Y-107823000D03*
X106510000Y-107823000D03*
X110010000Y-107823000D03*
X113510000Y-107823000D03*
X117010000Y-107823000D03*
X120510000Y-107823000D03*
X124010000Y-107823000D03*
D18*
X127510000Y-107823000D03*
%TD*%
D19*
%TO.C,D22*%
X161925000Y-121825000D03*
X161925000Y-125825000D03*
%TD*%
%TO.C,D21*%
X168402000Y-113062000D03*
X168402000Y-117062000D03*
%TD*%
%TO.C,D20*%
X158242000Y-121825000D03*
X158242000Y-125825000D03*
%TD*%
%TO.C,D19*%
X154559000Y-121825000D03*
X154559000Y-125825000D03*
%TD*%
%TO.C,D18*%
X172085000Y-117062000D03*
X172085000Y-113062000D03*
%TD*%
%TO.C,D17*%
X161036000Y-117062000D03*
X161036000Y-113062000D03*
%TD*%
%TO.C,D16*%
X157353000Y-117062000D03*
X157353000Y-113062000D03*
%TD*%
%TO.C,D15*%
X153670000Y-117062000D03*
X153670000Y-113062000D03*
%TD*%
%TO.C,D14*%
X164719000Y-113062000D03*
X164719000Y-117062000D03*
%TD*%
D20*
%TO.C,D13*%
X141510000Y-129921000D03*
X145510000Y-129921000D03*
%TD*%
D19*
%TO.C,D12*%
X168910000Y-128483000D03*
X168910000Y-132483000D03*
%TD*%
%TO.C,D11*%
X117475000Y-121825000D03*
X117475000Y-125825000D03*
%TD*%
%TO.C,D10*%
X123952000Y-113157000D03*
X123952000Y-117157000D03*
%TD*%
%TO.C,D9*%
X113792000Y-121825000D03*
X113792000Y-125825000D03*
%TD*%
%TO.C,D8*%
X110109000Y-121825000D03*
X110109000Y-125825000D03*
%TD*%
%TO.C,D7*%
X127635000Y-117157000D03*
X127635000Y-113157000D03*
%TD*%
%TO.C,D6*%
X116586000Y-117157000D03*
X116586000Y-113157000D03*
%TD*%
%TO.C,D5*%
X112903000Y-117157000D03*
X112903000Y-113157000D03*
%TD*%
%TO.C,D4*%
X109220000Y-117189000D03*
X109220000Y-113189000D03*
%TD*%
%TO.C,D3*%
X120269000Y-113157000D03*
X120269000Y-117157000D03*
%TD*%
D20*
%TO.C,D2*%
X97060000Y-130048000D03*
X101060000Y-130048000D03*
%TD*%
D19*
%TO.C,D1*%
X123952000Y-128429000D03*
X123952000Y-132429000D03*
%TD*%
M02*
