%TF.GenerationSoftware,KiCad,Pcbnew,(5.99.0-9393-ga28cb98626)*%
%TF.CreationDate,2021-02-27T14:03:50-08:00*%
%TF.ProjectId,AuxRelays,41757852-656c-4617-9973-2e6b69636164,n/c*%
%TF.SameCoordinates,Original*%
%TF.FileFunction,Soldermask,Bot*%
%TF.FilePolarity,Negative*%
%FSLAX46Y46*%
G04 Gerber Fmt 4.6, Leading zero omitted, Abs format (unit mm)*
G04 Created by KiCad (PCBNEW (5.99.0-9393-ga28cb98626)) date 2021-02-27 14:03:50*
%MOMM*%
%LPD*%
G01*
G04 APERTURE LIST*
%ADD10C,2.286000*%
%ADD11C,2.400000*%
%ADD12R,2.400000X2.400000*%
G04 APERTURE END LIST*
D10*
%TO.C,RLY2*%
X150233000Y-132116000D03*
X137033000Y-132116000D03*
X150233000Y-125716000D03*
X145833000Y-125716000D03*
X141633000Y-125716000D03*
X137033000Y-125716000D03*
X150233000Y-119516000D03*
X145833000Y-119516000D03*
X141433000Y-119516000D03*
X137033000Y-119516000D03*
X150233000Y-115316000D03*
X145833000Y-115316000D03*
X141433000Y-115316000D03*
X137033000Y-115316000D03*
%TD*%
%TO.C,RLY1*%
X105783000Y-132116000D03*
X92583000Y-132116000D03*
X105783000Y-125716000D03*
X101383000Y-125716000D03*
X97183000Y-125716000D03*
X92583000Y-125716000D03*
X105783000Y-119516000D03*
X101383000Y-119516000D03*
X96983000Y-119516000D03*
X92583000Y-119516000D03*
X105783000Y-115316000D03*
X101383000Y-115316000D03*
X96983000Y-115316000D03*
X92583000Y-115316000D03*
%TD*%
D11*
%TO.C,J3*%
X88265000Y-136275000D03*
X88265000Y-132775000D03*
X88265000Y-129275000D03*
X88265000Y-125775000D03*
X88265000Y-122275000D03*
X88265000Y-118775000D03*
X88265000Y-115275000D03*
X88265000Y-111775000D03*
X88265000Y-108275000D03*
D12*
X88265000Y-104775000D03*
%TD*%
D11*
%TO.C,J2*%
X140460000Y-107696000D03*
X143960000Y-107696000D03*
X147460000Y-107696000D03*
X150960000Y-107696000D03*
X154460000Y-107696000D03*
X157960000Y-107696000D03*
X161460000Y-107696000D03*
X164960000Y-107696000D03*
X168460000Y-107696000D03*
D12*
X171960000Y-107696000D03*
%TD*%
D11*
%TO.C,J1*%
X96010000Y-107823000D03*
X99510000Y-107823000D03*
X103010000Y-107823000D03*
X106510000Y-107823000D03*
X110010000Y-107823000D03*
X113510000Y-107823000D03*
X117010000Y-107823000D03*
X120510000Y-107823000D03*
X124010000Y-107823000D03*
D12*
X127510000Y-107823000D03*
%TD*%
M02*
