%TF.GenerationSoftware,KiCad,Pcbnew,(5.99.0-9393-ga28cb98626)*%
%TF.CreationDate,2021-02-27T14:03:50-08:00*%
%TF.ProjectId,AuxRelays,41757852-656c-4617-9973-2e6b69636164,n/c*%
%TF.SameCoordinates,Original*%
%TF.FileFunction,Soldermask,Top*%
%TF.FilePolarity,Negative*%
%FSLAX46Y46*%
G04 Gerber Fmt 4.6, Leading zero omitted, Abs format (unit mm)*
G04 Created by KiCad (PCBNEW (5.99.0-9393-ga28cb98626)) date 2021-02-27 14:03:50*
%MOMM*%
%LPD*%
G01*
G04 APERTURE LIST*
G04 Aperture macros list*
%AMRoundRect*
0 Rectangle with rounded corners*
0 $1 Rounding radius*
0 $2 $3 $4 $5 $6 $7 $8 $9 X,Y pos of 4 corners*
0 Add a 4 corners polygon primitive as box body*
4,1,4,$2,$3,$4,$5,$6,$7,$8,$9,$2,$3,0*
0 Add four circle primitives for the rounded corners*
1,1,$1+$1,$2,$3*
1,1,$1+$1,$4,$5*
1,1,$1+$1,$6,$7*
1,1,$1+$1,$8,$9*
0 Add four rect primitives between the rounded corners*
20,1,$1+$1,$2,$3,$4,$5,0*
20,1,$1+$1,$4,$5,$6,$7,0*
20,1,$1+$1,$6,$7,$8,$9,0*
20,1,$1+$1,$8,$9,$2,$3,0*%
G04 Aperture macros list end*
%ADD10C,2.286000*%
%ADD11RoundRect,0.250000X-0.350000X-0.450000X0.350000X-0.450000X0.350000X0.450000X-0.350000X0.450000X0*%
%ADD12RoundRect,0.250000X0.350000X0.450000X-0.350000X0.450000X-0.350000X-0.450000X0.350000X-0.450000X0*%
%ADD13RoundRect,0.150000X-0.825000X-0.150000X0.825000X-0.150000X0.825000X0.150000X-0.825000X0.150000X0*%
%ADD14RoundRect,0.250001X-0.462499X-0.624999X0.462499X-0.624999X0.462499X0.624999X-0.462499X0.624999X0*%
%ADD15C,2.400000*%
%ADD16R,2.400000X2.400000*%
%ADD17R,1.800000X2.500000*%
%ADD18R,2.500000X1.800000*%
G04 APERTURE END LIST*
D10*
%TO.C,RLY2*%
X150233000Y-132116000D03*
X137033000Y-132116000D03*
X150233000Y-125716000D03*
X145833000Y-125716000D03*
X141633000Y-125716000D03*
X137033000Y-125716000D03*
X150233000Y-119516000D03*
X145833000Y-119516000D03*
X141433000Y-119516000D03*
X137033000Y-119516000D03*
X150233000Y-115316000D03*
X145833000Y-115316000D03*
X141433000Y-115316000D03*
X137033000Y-115316000D03*
%TD*%
%TO.C,RLY1*%
X105783000Y-132116000D03*
X92583000Y-132116000D03*
X105783000Y-125716000D03*
X101383000Y-125716000D03*
X97183000Y-125716000D03*
X92583000Y-125716000D03*
X105783000Y-119516000D03*
X101383000Y-119516000D03*
X96983000Y-119516000D03*
X92583000Y-119516000D03*
X105783000Y-115316000D03*
X101383000Y-115316000D03*
X96983000Y-115316000D03*
X92583000Y-115316000D03*
%TD*%
D11*
%TO.C,R10*%
X157210000Y-134801000D03*
X155210000Y-134801000D03*
%TD*%
D12*
%TO.C,R9*%
X155210000Y-132769000D03*
X157210000Y-132769000D03*
%TD*%
D11*
%TO.C,R8*%
X157210000Y-130737000D03*
X155210000Y-130737000D03*
%TD*%
D12*
%TO.C,R7*%
X155210000Y-128705000D03*
X157210000Y-128705000D03*
%TD*%
%TO.C,R6*%
X145431000Y-133223000D03*
X147431000Y-133223000D03*
%TD*%
D11*
%TO.C,R5*%
X112760000Y-135001000D03*
X110760000Y-135001000D03*
%TD*%
D12*
%TO.C,R4*%
X110760000Y-132969000D03*
X112760000Y-132969000D03*
%TD*%
D11*
%TO.C,R3*%
X112760000Y-130937000D03*
X110760000Y-130937000D03*
%TD*%
D12*
%TO.C,R2*%
X110760000Y-128905000D03*
X112760000Y-128905000D03*
%TD*%
%TO.C,R1*%
X101108000Y-133350000D03*
X103108000Y-133350000D03*
%TD*%
D13*
%TO.C,Q2*%
X165035000Y-129848000D03*
X165035000Y-131118000D03*
X165035000Y-132388000D03*
X165035000Y-133658000D03*
X160085000Y-133658000D03*
X160085000Y-132388000D03*
X160085000Y-131118000D03*
X160085000Y-129848000D03*
%TD*%
%TO.C,Q1*%
X120331000Y-129921000D03*
X120331000Y-131191000D03*
X120331000Y-132461000D03*
X120331000Y-133731000D03*
X115381000Y-133731000D03*
X115381000Y-132461000D03*
X115381000Y-131191000D03*
X115381000Y-129921000D03*
%TD*%
D14*
%TO.C,LED2*%
X143092500Y-133223000D03*
X140117500Y-133223000D03*
%TD*%
%TO.C,LED1*%
X98769500Y-133350000D03*
X95794500Y-133350000D03*
%TD*%
D15*
%TO.C,J3*%
X88265000Y-136275000D03*
X88265000Y-132775000D03*
X88265000Y-129275000D03*
X88265000Y-125775000D03*
X88265000Y-122275000D03*
X88265000Y-118775000D03*
X88265000Y-115275000D03*
X88265000Y-111775000D03*
X88265000Y-108275000D03*
D16*
X88265000Y-104775000D03*
%TD*%
D15*
%TO.C,J2*%
X140460000Y-107696000D03*
X143960000Y-107696000D03*
X147460000Y-107696000D03*
X150960000Y-107696000D03*
X154460000Y-107696000D03*
X157960000Y-107696000D03*
X161460000Y-107696000D03*
X164960000Y-107696000D03*
X168460000Y-107696000D03*
D16*
X171960000Y-107696000D03*
%TD*%
D15*
%TO.C,J1*%
X96010000Y-107823000D03*
X99510000Y-107823000D03*
X103010000Y-107823000D03*
X106510000Y-107823000D03*
X110010000Y-107823000D03*
X113510000Y-107823000D03*
X117010000Y-107823000D03*
X120510000Y-107823000D03*
X124010000Y-107823000D03*
D16*
X127510000Y-107823000D03*
%TD*%
D17*
%TO.C,D22*%
X161925000Y-121825000D03*
X161925000Y-125825000D03*
%TD*%
%TO.C,D21*%
X168402000Y-113062000D03*
X168402000Y-117062000D03*
%TD*%
%TO.C,D20*%
X158242000Y-121825000D03*
X158242000Y-125825000D03*
%TD*%
%TO.C,D19*%
X154559000Y-121825000D03*
X154559000Y-125825000D03*
%TD*%
%TO.C,D18*%
X172085000Y-117062000D03*
X172085000Y-113062000D03*
%TD*%
%TO.C,D17*%
X161036000Y-117062000D03*
X161036000Y-113062000D03*
%TD*%
%TO.C,D16*%
X157353000Y-117062000D03*
X157353000Y-113062000D03*
%TD*%
%TO.C,D15*%
X153670000Y-117062000D03*
X153670000Y-113062000D03*
%TD*%
%TO.C,D14*%
X164719000Y-113062000D03*
X164719000Y-117062000D03*
%TD*%
D18*
%TO.C,D13*%
X141510000Y-129921000D03*
X145510000Y-129921000D03*
%TD*%
D17*
%TO.C,D12*%
X168910000Y-128483000D03*
X168910000Y-132483000D03*
%TD*%
%TO.C,D11*%
X117475000Y-121825000D03*
X117475000Y-125825000D03*
%TD*%
%TO.C,D10*%
X123952000Y-113157000D03*
X123952000Y-117157000D03*
%TD*%
%TO.C,D9*%
X113792000Y-121825000D03*
X113792000Y-125825000D03*
%TD*%
%TO.C,D8*%
X110109000Y-121825000D03*
X110109000Y-125825000D03*
%TD*%
%TO.C,D7*%
X127635000Y-117157000D03*
X127635000Y-113157000D03*
%TD*%
%TO.C,D6*%
X116586000Y-117157000D03*
X116586000Y-113157000D03*
%TD*%
%TO.C,D5*%
X112903000Y-117157000D03*
X112903000Y-113157000D03*
%TD*%
%TO.C,D4*%
X109220000Y-117189000D03*
X109220000Y-113189000D03*
%TD*%
%TO.C,D3*%
X120269000Y-113157000D03*
X120269000Y-117157000D03*
%TD*%
D18*
%TO.C,D2*%
X97060000Y-130048000D03*
X101060000Y-130048000D03*
%TD*%
D17*
%TO.C,D1*%
X123952000Y-128429000D03*
X123952000Y-132429000D03*
%TD*%
M02*
